<svg xmlns="http://www.w3.org/2000/svg" version="1.1" xmlns:xlink="http://www.w3.org/1999/xlink" xmlns:svgjs="http://svgjs.com/svgjs" width="1000" height="1000"><rect width="1000" height="1000" rx="200" ry="200" fill="#ffffff"></rect><g transform="matrix(25,0,0,25,100,100)"><svg xmlns="http://www.w3.org/2000/svg" version="1.1" xmlns:xlink="http://www.w3.org/1999/xlink" xmlns:svgjs="http://svgjs.com/svgjs" width="32" height="32"><svg width="32" height="32" viewBox="0 0 32 32" fill="none" xmlns="http://www.w3.org/2000/svg">
<path d="M6 29V3H15.8147C17.8253 3 19.5122 3.34701 20.8754 4.04102C22.2471 4.73503 23.2822 5.70833 23.9808 6.96094C24.688 8.20508 25.0415 9.65658 25.0415 11.3154C25.0415 12.9827 24.6837 14.43 23.9681 15.6572C23.2609 16.876 22.2173 17.8197 20.8371 18.4883C19.4569 19.1484 17.7614 19.4785 15.7508 19.4785H8.76038V15.5684H15.1118C16.2875 15.5684 17.2503 15.4076 18 15.0859C18.7497 14.7559 19.3035 14.2777 19.6613 13.6514C20.0277 13.0166 20.2109 12.238 20.2109 11.3154C20.2109 10.3929 20.0277 9.60579 19.6613 8.9541C19.295 8.29395 18.737 7.7946 17.9872 7.45605C17.2375 7.10905 16.2705 6.93555 15.0863 6.93555H10.7412V29H6ZM19.5208 17.2187L26 29H20.7093L14.345 17.2187H19.5208Z" fill="black"></path>
</svg></svg></g></svg>