<svg fill="none" height="399" viewBox="0 0 711 399" width="711" xmlns="http://www.w3.org/2000/svg" >
    <path d="M0 0h711v399H0z" fill="#212121" />
    <path d="M217 72h304L217 330z" fill="url(#a)" />
    <path d="M217 330 521 72" stroke="#fff" stroke-dasharray="2 6" stroke-linejoin="round" stroke-opacity=".5" stroke-width="1.5" />
    <path d="m217 36-5.774 10h11.548zm-1 294a1 1 0 0 0 2 0zm1-285h-1v285h2V45z" fill="#fff" />
    <path d="m565 330-10-5.774v11.548zm-348-1a1 1 0 0 0 0 2zm339 1v-1H217v2h339z" fill="#fff" />
    <path d="M460.933 358v-9.455h1.712v4.003h4.381v-4.003h1.718V358h-1.718v-4.016h-4.381V358zm11.64.143a3 3 0 0 1-1.214-.24 2 2 0 0 1-.85-.72q-.309-.476-.309-1.173 0-.6.222-.992.221-.393.604-.628.384-.236.864-.356a7 7 0 0 1 1.002-.18q.623-.064 1.011-.115.387-.055.563-.166.18-.116.18-.356v-.027q0-.522-.31-.808-.309-.286-.891-.286-.614 0-.974.267-.356.268-.48.633l-1.56-.222q.184-.646.609-1.08.425-.438 1.039-.656a4 4 0 0 1 1.357-.221q.513 0 1.02.12.508.12.928.397.42.272.674.743.26.47.259 1.177V358h-1.607v-.974h-.055a2 2 0 0 1-.429.554 2.1 2.1 0 0 1-.688.411 2.8 2.8 0 0 1-.965.152m.434-1.228q.503 0 .872-.198.37-.204.568-.536.203-.332.203-.725v-.835a.8.8 0 0 1-.267.12 4 4 0 0 1-.416.097q-.23.04-.457.074l-.392.055a3 3 0 0 0-.67.166 1.1 1.1 0 0 0-.466.323.8.8 0 0 0-.171.527q0 .461.337.697t.859.235m4.99 1.085v-7.091h1.621v1.182h.074q.193-.614.664-.946a1.83 1.83 0 0 1 1.085-.337q.14 0 .31.013.174.01.29.033v1.537a2 2 0 0 0-.337-.065 3 3 0 0 0-.438-.032q-.457 0-.822.199-.36.194-.568.54t-.207.798V358zm7.494.125a2.7 2.7 0 0 1-1.496-.43q-.66-.429-1.043-1.246-.383-.818-.383-1.985 0-1.182.388-1.995.392-.816 1.057-1.232.664-.42 1.482-.42.623 0 1.025.212.401.208.637.503.235.29.364.55h.07v-3.537h1.675V358h-1.643v-1.117h-.102a3 3 0 0 1-.374.549 2.1 2.1 0 0 1-.646.49q-.402.203-1.011.203m.466-1.371q.531 0 .905-.287a1.8 1.8 0 0 0 .568-.808q.194-.516.194-1.204 0-.689-.194-1.196a1.7 1.7 0 0 0-.563-.79q-.37-.28-.91-.281-.558 0-.932.291-.375.29-.563.803-.19.512-.19 1.173 0 .664.19 1.186.194.517.567.817.38.296.928.296m11.857-5.845v1.293h-4.077v-1.293zm-3.07-1.699h1.671v6.657q0 .337.101.517a.55.55 0 0 0 .277.24q.17.065.379.065.157 0 .286-.023.134-.023.203-.042l.282 1.307a4 4 0 0 1-.383.101 3 3 0 0 1-.6.065 2.7 2.7 0 0 1-1.132-.189 1.76 1.76 0 0 1-.798-.656q-.29-.443-.286-1.108zm7.484 8.928q-1.039 0-1.8-.457a3.1 3.1 0 0 1-1.182-1.278q-.416-.822-.416-1.921 0-1.098.416-1.925a3.1 3.1 0 0 1 1.182-1.283q.761-.457 1.8-.457t1.8.457 1.178 1.283q.42.827.42 1.925 0 1.1-.42 1.921-.416.822-1.178 1.278-.76.457-1.8.457m.009-1.338q.564 0 .942-.31.378-.313.563-.84a3.5 3.5 0 0 0 .19-1.172 3.5 3.5 0 0 0-.19-1.178 1.86 1.86 0 0 0-.563-.844q-.378-.315-.942-.314-.576 0-.96.314-.379.313-.568.844a3.6 3.6 0 0 0-.184 1.178q0 .645.184 1.172.19.526.568.84.384.31.96.31m11.125 1.338q-1.062 0-1.824-.466a3.1 3.1 0 0 1-1.168-1.288q-.405-.827-.406-1.902 0-1.08.416-1.906a3.1 3.1 0 0 1 1.172-1.293q.762-.466 1.801-.466.863 0 1.528.318.669.315 1.066.891.398.573.453 1.339h-1.598a1.52 1.52 0 0 0-.461-.854q-.361-.346-.965-.346a1.5 1.5 0 0 0-.901.277q-.388.272-.604.785-.213.512-.213 1.228 0 .724.213 1.246.212.517.595.799.388.276.91.277.369 0 .66-.139.295-.142.494-.411.198-.267.272-.651h1.598a2.8 2.8 0 0 1-.444 1.335 2.6 2.6 0 0 1-1.043.904q-.66.324-1.551.323m4.41-.138v-7.091h1.62v1.182h.074q.194-.614.665-.946a1.83 1.83 0 0 1 1.085-.337q.138 0 .309.013.175.01.291.033v1.537a2 2 0 0 0-.337-.065 3 3 0 0 0-.439-.032q-.456 0-.822.199-.36.194-.567.54-.208.346-.208.798V358zm7.068.143q-.674 0-1.215-.24a2 2 0 0 1-.849-.72q-.309-.476-.309-1.173 0-.6.221-.992.222-.393.605-.628.383-.236.863-.356a7 7 0 0 1 1.002-.18 38 38 0 0 0 1.011-.115q.388-.055.563-.166.18-.116.18-.356v-.027q0-.522-.309-.808t-.891-.286q-.614 0-.974.267-.356.268-.48.633l-1.56-.222q.185-.646.609-1.08a2.66 2.66 0 0 1 1.039-.656 4 4 0 0 1 1.357-.221q.512 0 1.02.12t.928.397q.42.272.674.743.259.47.259 1.177V358h-1.607v-.974h-.055a2 2 0 0 1-.43.554 2.1 2.1 0 0 1-.688.411 2.8 2.8 0 0 1-.964.152m.434-1.228q.503 0 .872-.198a1.47 1.47 0 0 0 .568-.536q.203-.332.203-.725v-.835a.8.8 0 0 1-.268.12 4 4 0 0 1-.415.097q-.23.04-.457.074l-.393.055a3 3 0 0 0-.669.166 1.1 1.1 0 0 0-.466.323.8.8 0 0 0-.171.527q0 .461.337.697t.859.235m8.582-6.006v1.293h-4.192v-1.293zM530.712 358v-7.76q0-.715.295-1.191.3-.475.803-.711a2.6 2.6 0 0 1 1.118-.236q.433 0 .771.07.336.069.498.124l-.332 1.293a3 3 0 0 0-.268-.065 1.7 1.7 0 0 0-.36-.037q-.467 0-.66.226-.189.223-.189.637V358zm7.993-7.091v1.293h-4.076v-1.293zm-3.07-1.699h1.671v6.657q0 .337.102.517a.55.55 0 0 0 .277.24q.171.065.378.065.158 0 .287-.023.134-.023.203-.042l.281 1.307a4 4 0 0 1-.383.101 3 3 0 0 1-.6.065 2.7 2.7 0 0 1-1.131-.189 1.76 1.76 0 0 1-.799-.656q-.29-.443-.286-1.108zM228.933 358v-9.455h6.149v1.436h-4.437v2.567h4.118v1.436h-4.118v2.58h4.474V358zm9.863.143q-.674 0-1.215-.24a2 2 0 0 1-.849-.72q-.309-.476-.309-1.173 0-.6.221-.992.222-.393.605-.628.383-.236.863-.356a7 7 0 0 1 1.002-.18 38 38 0 0 0 1.011-.115q.388-.055.563-.166.18-.116.18-.356v-.027q0-.522-.309-.808t-.891-.286q-.614 0-.974.267-.355.268-.48.633l-1.56-.222q.184-.646.609-1.08a2.66 2.66 0 0 1 1.039-.656 4 4 0 0 1 1.357-.221q.513 0 1.02.12.508.12.928.397.42.272.674.743.259.47.259 1.177V358h-1.607v-.974h-.055a2 2 0 0 1-.43.554 2.1 2.1 0 0 1-.688.411 2.8 2.8 0 0 1-.964.152m.434-1.228q.503 0 .872-.198a1.47 1.47 0 0 0 .568-.536q.203-.332.203-.725v-.835a.8.8 0 0 1-.268.12 4 4 0 0 1-.415.097q-.23.04-.457.074l-.393.055a3 3 0 0 0-.669.166 1.1 1.1 0 0 0-.466.323.8.8 0 0 0-.171.527q0 .461.337.697t.859.235m10.594-4.132-1.523.167a1.2 1.2 0 0 0-.226-.434 1.1 1.1 0 0 0-.425-.328 1.55 1.55 0 0 0-.656-.125q-.521 0-.877.226-.35.227-.346.587a.61.61 0 0 0 .226.503q.236.194.776.318l1.209.259q1.007.217 1.496.688.494.471.499 1.232a1.92 1.92 0 0 1-.393 1.182q-.383.508-1.066.794-.684.286-1.57.286-1.302 0-2.096-.544-.793-.55-.946-1.528l1.63-.157q.111.48.471.725.36.244.937.244.595 0 .955-.244.365-.245.365-.605a.63.63 0 0 0-.235-.503q-.23-.199-.721-.305l-1.209-.254q-1.02-.212-1.51-.716-.489-.507-.484-1.283a1.82 1.82 0 0 1 .355-1.136q.365-.485 1.011-.747.651-.268 1.5-.268 1.246 0 1.962.531.721.53.891 1.435m2.569 7.876a3.4 3.4 0 0 1-.632-.055 2.4 2.4 0 0 1-.457-.12l.388-1.302q.365.106.651.101a.8.8 0 0 0 .503-.18q.221-.17.374-.572l.143-.383-2.571-7.239h1.772l1.635 5.355h.073l1.639-5.355h1.778l-2.84 7.95a3.2 3.2 0 0 1-.526.965q-.327.406-.803.618-.471.217-1.127.217m13.217-9.75v1.293h-4.076v-1.293zm-3.07-1.699h1.672v6.657q0 .337.101.517a.55.55 0 0 0 .277.24q.17.065.379.065.156 0 .286-.023.134-.023.203-.042l.282 1.307q-.135.046-.383.101a3 3 0 0 1-.601.065 2.7 2.7 0 0 1-1.131-.189 1.76 1.76 0 0 1-.798-.656q-.291-.443-.287-1.108zm7.485 8.928q-1.04 0-1.8-.457a3.1 3.1 0 0 1-1.182-1.278q-.416-.822-.416-1.921 0-1.098.416-1.925a3.1 3.1 0 0 1 1.182-1.283q.76-.457 1.8-.457 1.039 0 1.8.457.762.456 1.178 1.283.42.827.42 1.925 0 1.1-.42 1.921-.416.822-1.178 1.278-.761.457-1.8.457m.009-1.338q.564 0 .942-.31.378-.313.563-.84a3.5 3.5 0 0 0 .189-1.172 3.5 3.5 0 0 0-.189-1.178 1.86 1.86 0 0 0-.563-.844q-.378-.315-.942-.314-.577 0-.96.314-.379.313-.568.844a3.6 3.6 0 0 0-.185 1.178q0 .645.185 1.172.19.526.568.84.382.31.96.31m11.125 1.338q-1.062 0-1.824-.466a3.1 3.1 0 0 1-1.168-1.288q-.406-.827-.406-1.902 0-1.08.415-1.906a3.1 3.1 0 0 1 1.173-1.293q.762-.466 1.801-.466.862 0 1.528.318.669.315 1.066.891.397.573.452 1.339h-1.597a1.52 1.52 0 0 0-.462-.854q-.36-.346-.964-.346a1.5 1.5 0 0 0-.901.277q-.387.272-.604.785-.213.512-.213 1.228 0 .724.213 1.246.212.517.595.799.388.276.91.277.369 0 .66-.139.295-.142.494-.411.198-.267.272-.651h1.597q-.06.753-.443 1.335a2.6 2.6 0 0 1-1.043.904q-.66.324-1.551.323m4.41-.138v-7.091h1.62v1.182h.074q.194-.614.665-.946a1.83 1.83 0 0 1 1.085-.337q.138 0 .309.013.175.01.291.033v1.537a2 2 0 0 0-.337-.065 3 3 0 0 0-.439-.032q-.457 0-.822.199-.36.194-.567.54-.208.346-.208.798V358zm7.067.143a3 3 0 0 1-1.214-.24 2 2 0 0 1-.849-.72q-.309-.476-.309-1.173 0-.6.221-.992.221-.393.605-.628.383-.236.863-.356a7 7 0 0 1 1.002-.18q.623-.064 1.011-.115.388-.055.563-.166.18-.116.18-.356v-.027q0-.522-.309-.808t-.891-.286q-.614 0-.974.267-.356.268-.48.633l-1.561-.222a2.5 2.5 0 0 1 .61-1.08 2.66 2.66 0 0 1 1.038-.656q.615-.22 1.358-.221.511 0 1.02.12.508.12.928.397.42.272.674.743.258.47.258 1.177V358h-1.606v-.974h-.056a2.02 2.02 0 0 1-1.117.965 2.8 2.8 0 0 1-.965.152m.434-1.228q.504 0 .873-.198.369-.204.568-.536.203-.332.203-.725v-.835a.8.8 0 0 1-.268.12 4 4 0 0 1-.415.097q-.231.04-.457.074l-.393.055a3 3 0 0 0-.669.166 1.1 1.1 0 0 0-.466.323.8.8 0 0 0-.171.527q0 .461.337.697t.858.235m8.582-6.006v1.293h-4.191v-1.293zM298.509 358v-7.76q0-.715.295-1.191.3-.475.803-.711a2.6 2.6 0 0 1 1.118-.236q.434 0 .77.07.337.069.499.124l-.332 1.293a3 3 0 0 0-.268-.065 1.7 1.7 0 0 0-.36-.037q-.466 0-.66.226-.19.223-.19.637V358zm7.993-7.091v1.293h-4.076v-1.293zm-3.07-1.699h1.671v6.657q0 .337.102.517a.55.55 0 0 0 .277.24q.171.065.378.065.157 0 .287-.023.134-.023.203-.042l.281 1.307a4 4 0 0 1-.383.101 3 3 0 0 1-.6.065 2.7 2.7 0 0 1-1.131-.189 1.76 1.76 0 0 1-.799-.656q-.29-.443-.286-1.108z" fill="#fff" fill-opacity=".5" />
    <path d="M355.933 315v-9.455h3.619q1.025 0 1.703.324.684.318 1.021.872.34.554.341 1.256 0 .577-.221.988a1.9 1.9 0 0 1-.596.66 2.5 2.5 0 0 1-.836.365v.092q.504.027.965.309.466.277.762.785t.296 1.228q0 .733-.356 1.32-.356.582-1.071.919t-1.8.337zm1.712-1.431h1.842q.933 0 1.344-.356.415-.36.415-.923a1.41 1.41 0 0 0-.799-1.292q-.383-.2-.914-.199h-1.888zm0-4.003h1.694q.444 0 .799-.161.355-.166.559-.466.207-.306.207-.721 0-.549-.387-.904-.384-.356-1.141-.356h-1.731zm8.798 5.577a3 3 0 0 1-1.214-.24 2 2 0 0 1-.849-.72q-.31-.476-.31-1.173 0-.6.222-.992.221-.393.605-.628.383-.236.863-.356a7 7 0 0 1 1.002-.18q.623-.064 1.011-.115.387-.055.563-.166.18-.116.18-.356v-.027q0-.522-.309-.808-.31-.286-.891-.286-.614 0-.974.267a1.34 1.34 0 0 0-.481.633l-1.56-.222q.185-.646.609-1.08a2.7 2.7 0 0 1 1.039-.656 4 4 0 0 1 1.357-.221q.513 0 1.021.12t.928.397q.42.272.674.743.258.47.258 1.177V315h-1.606v-.974h-.056a2 2 0 0 1-.429.554 2.1 2.1 0 0 1-.688.411 2.8 2.8 0 0 1-.965.152m.434-1.228q.503 0 .873-.198.369-.204.567-.536.204-.332.204-.725v-.835a.8.8 0 0 1-.268.12 4 4 0 0 1-.416.097q-.23.04-.457.074l-.392.055a3 3 0 0 0-.67.166 1.1 1.1 0 0 0-.466.323.8.8 0 0 0-.171.527q0 .461.337.697t.859.235m8.083 1.223q-1.06 0-1.823-.466a3.1 3.1 0 0 1-1.168-1.288q-.406-.827-.406-1.902 0-1.08.415-1.906a3.1 3.1 0 0 1 1.173-1.293q.762-.466 1.8-.466.864 0 1.528.318.67.315 1.067.891.396.573.452 1.339h-1.597a1.53 1.53 0 0 0-.462-.854q-.36-.346-.965-.346-.512 0-.9.277-.387.272-.605.785-.212.512-.212 1.228 0 .724.212 1.246.212.517.596.799.388.276.909.277.37 0 .66-.139.296-.142.494-.411a1.56 1.56 0 0 0 .273-.651h1.597q-.06.753-.443 1.335a2.6 2.6 0 0 1-1.043.904q-.66.324-1.552.323m5.934-2.363-.005-2.018h.268l2.548-2.848h1.953l-3.135 3.49h-.346zM379.37 315v-9.455h1.672V315zm4.451 0-2.309-3.227 1.127-1.177L385.82 315zm5.743 2.807q-.901 0-1.547-.245-.646-.24-1.039-.646a2.24 2.24 0 0 1-.544-.9l1.505-.365q.101.207.295.411.194.207.522.341.332.14.835.139.712 0 1.177-.346.467-.342.467-1.127v-1.343h-.083a2.4 2.4 0 0 1-.379.531 1.9 1.9 0 0 1-.651.457q-.402.184-1.011.184a2.9 2.9 0 0 1-1.482-.383q-.66-.387-1.052-1.154-.388-.77-.388-1.93 0-1.167.388-1.971.392-.807 1.057-1.223.665-.42 1.482-.42.623 0 1.025.212.405.208.646.503.24.29.365.55h.092v-1.173h1.648v7.206q0 .91-.434 1.505a2.6 2.6 0 0 1-1.186.891q-.753.296-1.708.296m.013-4.22q.531 0 .905-.258.375-.259.568-.743.194-.485.194-1.164 0-.67-.194-1.172a1.7 1.7 0 0 0-.563-.781q-.369-.28-.91-.281-.558 0-.932.291t-.563.798a3.2 3.2 0 0 0-.19 1.145q0 .651.19 1.14.193.486.568.758.378.267.927.267m5.028 1.413v-7.091h1.62v1.182h.074q.194-.614.665-.946a1.83 1.83 0 0 1 1.085-.337q.138 0 .309.013.175.01.291.033v1.537a2 2 0 0 0-.337-.065 3 3 0 0 0-.439-.032q-.456 0-.822.199-.36.194-.567.54-.208.346-.208.798V315zm7.955.138q-1.039 0-1.8-.457a3.1 3.1 0 0 1-1.182-1.278q-.416-.822-.416-1.921 0-1.098.416-1.925a3.1 3.1 0 0 1 1.182-1.283q.761-.457 1.8-.457t1.801.457 1.177 1.283q.42.827.42 1.925 0 1.1-.42 1.921a3.07 3.07 0 0 1-1.177 1.278q-.762.457-1.801.457m.009-1.338q.564 0 .942-.31.378-.313.563-.84a3.5 3.5 0 0 0 .19-1.172 3.5 3.5 0 0 0-.19-1.178 1.86 1.86 0 0 0-.563-.844q-.378-.315-.942-.314-.576 0-.96.314-.378.313-.568.844a3.6 3.6 0 0 0-.184 1.178q0 .645.184 1.172.19.526.568.84.384.31.96.31m9.327-1.782v-4.109h1.671V315h-1.62v-1.26h-.074q-.24.595-.79.974-.545.378-1.343.378-.697 0-1.233-.309a2.15 2.15 0 0 1-.831-.909q-.3-.601-.3-1.45v-4.515h1.671v4.256q0 .675.37 1.072.369.397.969.397.37 0 .716-.181.346-.18.568-.535.226-.36.226-.9m5.061-1.173V315h-1.672v-7.091h1.598v1.205h.083q.245-.595.78-.946.54-.351 1.334-.351.735 0 1.279.314.549.313.849.909.305.596.3 1.445V315h-1.671v-4.256q0-.711-.369-1.113-.364-.402-1.011-.402-.438 0-.78.194-.337.19-.531.55-.189.36-.189.872m8.882 4.28a2.7 2.7 0 0 1-1.496-.43q-.66-.429-1.043-1.246-.384-.818-.384-1.985 0-1.182.388-1.995.393-.816 1.057-1.232.666-.42 1.482-.42.624 0 1.025.212.402.208.637.503.236.29.365.55h.069v-3.537h1.676V315h-1.643v-1.117h-.102a3 3 0 0 1-.374.549 2.1 2.1 0 0 1-.646.49q-.402.203-1.011.203m.466-1.371q.53 0 .905-.287.373-.29.568-.808.194-.516.194-1.204 0-.689-.194-1.196a1.7 1.7 0 0 0-.564-.79q-.369-.28-.909-.281-.558 0-.933.291a1.76 1.76 0 0 0-.563.803 3.4 3.4 0 0 0-.189 1.173q0 .664.189 1.186.194.517.568.817.379.296.928.296M434.62 315v-7.091h1.621v1.182h.074q.193-.614.664-.946a1.83 1.83 0 0 1 1.085-.337q.14 0 .31.013.175.01.29.033v1.537a2 2 0 0 0-.337-.065 3 3 0 0 0-.438-.032q-.457 0-.822.199-.36.194-.568.54t-.207.798V315zm8.002.138q-1.067 0-1.842-.443a3 3 0 0 1-1.187-1.265q-.415-.82-.415-1.934 0-1.094.415-1.92a3.15 3.15 0 0 1 1.173-1.293q.753-.466 1.768-.466.656 0 1.237.212.587.208 1.034.646.453.439.711 1.118.26.673.259 1.606v.513h-5.812v-1.127h4.21a1.8 1.8 0 0 0-.208-.854 1.5 1.5 0 0 0-.568-.595 1.6 1.6 0 0 0-.84-.217q-.511 0-.9.249-.387.244-.605.646a1.9 1.9 0 0 0-.217.873v.983q0 .618.227 1.062.225.438.632.674.406.231.951.231.365 0 .66-.102a1.5 1.5 0 0 0 .513-.309 1.3 1.3 0 0 0 .327-.503l1.561.175a2.44 2.44 0 0 1-.564 1.08 2.7 2.7 0 0 1-1.052.711q-.642.249-1.468.249m4.567-.138v-7.091h1.597v1.205h.083q.222-.609.734-.951.513-.346 1.224-.346.72 0 1.214.351.498.346.701.946h.074q.236-.591.794-.942.563-.355 1.334-.355.979 0 1.598.618.618.619.618 1.805V315h-1.675v-4.501q0-.66-.351-.965a1.25 1.25 0 0 0-.859-.309q-.605 0-.946.378-.337.374-.337.974V315h-1.639v-4.57q0-.55-.333-.877-.327-.328-.858-.328-.36 0-.656.184-.296.18-.471.513a1.6 1.6 0 0 0-.175.766V315zm14.76.138q-1.04 0-1.801-.457a3.1 3.1 0 0 1-1.181-1.278q-.416-.822-.416-1.921 0-1.098.416-1.925.42-.827 1.181-1.283.762-.457 1.801-.457t1.8.457 1.177 1.283q.42.827.421 1.925 0 1.1-.421 1.921a3.06 3.06 0 0 1-1.177 1.278q-.762.457-1.8.457m.009-1.338q.563 0 .942-.31.378-.313.563-.84a3.5 3.5 0 0 0 .189-1.172 3.5 3.5 0 0 0-.189-1.178 1.86 1.86 0 0 0-.563-.844q-.38-.315-.942-.314-.578 0-.96.314-.38.313-.568.844a3.6 3.6 0 0 0-.185 1.178q0 .645.185 1.172.189.526.568.84.382.31.96.31m10.9-5.891L470.332 315h-1.846l-2.526-7.091h1.782l1.63 5.267h.074l1.634-5.267zm2.993 7.234a3 3 0 0 1-1.214-.24 2 2 0 0 1-.849-.72q-.31-.476-.31-1.173 0-.6.222-.992.221-.393.605-.628.383-.236.863-.356a7 7 0 0 1 1.002-.18q.623-.064 1.011-.115.387-.055.563-.166.18-.116.18-.356v-.027q0-.522-.309-.808t-.891-.286q-.614 0-.974.267-.356.268-.48.633l-1.561-.222a2.5 2.5 0 0 1 .61-1.08 2.66 2.66 0 0 1 1.038-.656q.615-.22 1.358-.221.512 0 1.02.12t.928.397q.42.272.674.743.258.47.258 1.177V315h-1.606v-.974h-.056a2.02 2.02 0 0 1-1.117.965 2.8 2.8 0 0 1-.965.152m.434-1.228q.504 0 .873-.198.369-.204.568-.536.203-.332.203-.725v-.835a.8.8 0 0 1-.268.12 4 4 0 0 1-.416.097q-.23.04-.457.074l-.392.055a3 3 0 0 0-.669.166 1.1 1.1 0 0 0-.467.323.8.8 0 0 0-.17.527q0 .461.337.697.336.235.858.235m6.662-8.37V315h-1.671v-9.455zm-33.922-16.81h-1.726a2.2 2.2 0 0 0-.273-.752 2 2 0 0 0-1.168-.909 2.6 2.6 0 0 0-.808-.121q-.77 0-1.366.388-.596.383-.933 1.127-.337.738-.337 1.805 0 1.084.337 1.828.342.739.933 1.117a2.5 2.5 0 0 0 1.362.374q.425 0 .794-.111a2.2 2.2 0 0 0 .669-.337q.3-.221.503-.545.208-.322.287-.738l1.726.009a3.7 3.7 0 0 1-.42 1.265 3.7 3.7 0 0 1-.835 1.043 3.8 3.8 0 0 1-1.21.702 4.5 4.5 0 0 1-1.537.249q-1.247 0-2.225-.577-.98-.577-1.542-1.666-.564-1.09-.564-2.613 0-1.529.568-2.613.568-1.09 1.547-1.667.978-.576 2.216-.577a4.7 4.7 0 0 1 1.468.222q.678.221 1.209.651.531.425.873 1.043.346.614.452 1.403m4.588 6.403q-1.04 0-1.801-.457a3.1 3.1 0 0 1-1.181-1.278q-.416-.822-.416-1.921 0-1.098.416-1.925.42-.827 1.181-1.283.762-.457 1.801-.457t1.8.457 1.177 1.283q.421.827.421 1.925 0 1.1-.421 1.921a3.06 3.06 0 0 1-1.177 1.278q-.762.457-1.8.457m.009-1.338q.563 0 .942-.31.378-.313.563-.84a3.5 3.5 0 0 0 .189-1.172 3.5 3.5 0 0 0-.189-1.178 1.86 1.86 0 0 0-.563-.844q-.379-.315-.942-.314-.577 0-.96.314-.38.313-.568.844a3.6 3.6 0 0 0-.185 1.178q0 .645.185 1.172.189.526.568.84.382.31.96.31m6.478-2.955V295h-1.671v-7.091h1.597v1.205h.083q.245-.595.781-.946.54-.351 1.334-.351.733 0 1.278.314.55.313.85.909.304.596.3 1.445V295h-1.671v-4.256q0-.711-.369-1.113-.366-.402-1.012-.402-.438 0-.78.194-.336.19-.531.55-.189.36-.189.872m9.344 4.293q-1.062 0-1.824-.466a3.1 3.1 0 0 1-1.168-1.288q-.406-.827-.406-1.902 0-1.08.416-1.906a3.1 3.1 0 0 1 1.172-1.293q.762-.466 1.801-.466.863 0 1.528.318.669.315 1.066.891.398.573.453 1.339h-1.598a1.52 1.52 0 0 0-.461-.854q-.36-.346-.965-.346-.513 0-.9.277-.389.272-.605.785-.213.512-.213 1.228 0 .724.213 1.246.212.517.595.799.388.276.91.277.369 0 .66-.139.296-.142.494-.411.198-.267.272-.651h1.598q-.06.753-.444 1.335a2.6 2.6 0 0 1-1.043.904q-.66.324-1.551.323m7.549 0q-1.067 0-1.842-.443a3 3 0 0 1-1.186-1.265q-.416-.82-.416-1.934 0-1.094.416-1.92.42-.831 1.172-1.293.753-.466 1.768-.466.656 0 1.237.212.587.208 1.035.646.451.439.711 1.118.258.673.258 1.606v.513h-5.812v-1.127h4.21a1.8 1.8 0 0 0-.208-.854 1.5 1.5 0 0 0-.567-.595 1.6 1.6 0 0 0-.841-.217q-.512 0-.9.249-.387.244-.605.646a1.9 1.9 0 0 0-.217.873v.983q0 .618.227 1.062.225.438.632.674.406.231.951.231.364 0 .66-.102a1.5 1.5 0 0 0 .513-.309q.217-.204.327-.503l1.561.175a2.43 2.43 0 0 1-.563 1.08 2.74 2.74 0 0 1-1.053.711q-.642.249-1.468.249m4.567 2.521v-9.75h1.643v1.173h.097q.13-.26.365-.55.235-.295.637-.503.401-.212 1.025-.212.822 0 1.482.42.665.416 1.052 1.232.393.813.393 1.995 0 1.167-.383 1.985-.384.817-1.044 1.246t-1.496.43q-.609 0-1.011-.203a2.1 2.1 0 0 1-.646-.49 3.2 3.2 0 0 1-.374-.549h-.069v3.776zm1.639-6.204q0 .688.194 1.204.198.517.567.808.374.287.905.287.555 0 .928-.296.374-.3.563-.817.195-.522.194-1.186 0-.66-.189-1.173a1.76 1.76 0 0 0-.563-.803q-.374-.291-.933-.291-.536 0-.909.281-.375.282-.568.79-.189.507-.189 1.196m10.027-3.546v1.293h-4.077v-1.293zm-3.07-1.699h1.671v6.657q0 .337.101.517a.55.55 0 0 0 .277.24q.17.065.379.065.157 0 .286-.023.134-.023.203-.042l.282 1.307a4 4 0 0 1-.383.101 3 3 0 0 1-.6.065 2.7 2.7 0 0 1-1.131-.189 1.76 1.76 0 0 1-.799-.656q-.29-.443-.286-1.108zm9.732 8.933a3 3 0 0 1-1.214-.24 2 2 0 0 1-.849-.72q-.309-.476-.309-1.173 0-.6.221-.992.221-.393.605-.628.383-.236.863-.356a7 7 0 0 1 1.002-.18q.622-.064 1.011-.115.387-.055.563-.166.18-.116.18-.356v-.027q0-.522-.309-.808t-.891-.286q-.614 0-.974.267-.356.268-.48.633l-1.561-.222a2.5 2.5 0 0 1 .61-1.08 2.66 2.66 0 0 1 1.038-.656q.615-.22 1.358-.221.512 0 1.02.12.507.12.928.397.42.272.674.743.258.47.258 1.177V295h-1.606v-.974h-.056a2.02 2.02 0 0 1-1.117.965 2.8 2.8 0 0 1-.965.152m.434-1.228q.504 0 .873-.198.369-.204.568-.536.203-.332.203-.725v-.835a.8.8 0 0 1-.268.12 4 4 0 0 1-.415.097q-.231.04-.457.074l-.393.055a3 3 0 0 0-.669.166 1.1 1.1 0 0 0-.467.323.8.8 0 0 0-.17.527q0 .461.337.697t.858.235m4.991 1.085v-7.091h1.62v1.182h.074q.194-.614.665-.946a1.83 1.83 0 0 1 1.085-.337q.138 0 .309.013.175.01.291.033v1.537a2 2 0 0 0-.337-.065 3 3 0 0 0-.439-.032q-.456 0-.822.199-.36.194-.567.54-.208.346-.208.798V295zm9.076-7.091v1.293h-4.077v-1.293zm-3.07-1.699h1.671v6.657q0 .337.102.517.106.176.277.24.17.065.378.065.157 0 .286-.023.135-.023.203-.042l.282 1.307a4 4 0 0 1-.383.101 3 3 0 0 1-.6.065 2.7 2.7 0 0 1-1.131-.189 1.76 1.76 0 0 1-.799-.656q-.29-.443-.286-1.108z" fill="#74b259" />
    <path d="M115.836 323v-9.455h6.149v1.436h-4.436v2.567h4.117v1.436h-4.117v2.58h4.473V323zm9.863.143a3 3 0 0 1-1.214-.24 2 2 0 0 1-.85-.72q-.309-.476-.309-1.173 0-.6.222-.992.221-.393.604-.628.384-.236.864-.356a7 7 0 0 1 1.001-.18 38 38 0 0 0 1.011-.115q.388-.055.564-.166.18-.116.18-.356v-.027q0-.522-.31-.808-.309-.286-.891-.286-.614 0-.974.267-.355.268-.48.633l-1.56-.222q.184-.646.609-1.08.425-.438 1.039-.656a4 4 0 0 1 1.357-.221q.513 0 1.02.12.508.12.928.397.42.272.674.743.26.47.259 1.177V323h-1.607v-.974h-.055a2 2 0 0 1-.429.554 2.1 2.1 0 0 1-.688.411 2.8 2.8 0 0 1-.965.152m.434-1.228q.503 0 .872-.198.37-.204.568-.536.203-.332.203-.725v-.835a.8.8 0 0 1-.267.12 4 4 0 0 1-.416.097q-.23.04-.457.074l-.392.055a3 3 0 0 0-.67.166 1.1 1.1 0 0 0-.466.323.8.8 0 0 0-.171.527q0 .461.337.697t.859.235m10.595-4.132-1.524.167a1.2 1.2 0 0 0-.226-.434 1.1 1.1 0 0 0-.425-.328 1.55 1.55 0 0 0-.655-.125q-.522 0-.877.226-.351.227-.347.587a.61.61 0 0 0 .227.503q.235.194.775.318l1.21.259q1.006.217 1.495.688.495.471.499 1.232a1.93 1.93 0 0 1-.392 1.182q-.383.508-1.067.794t-1.569.286q-1.302 0-2.096-.544-.794-.55-.947-1.528l1.63-.157q.111.48.471.725.36.244.937.244.596 0 .956-.244.364-.245.364-.605a.63.63 0 0 0-.235-.503q-.231-.199-.72-.305l-1.21-.254q-1.02-.212-1.509-.716-.49-.507-.485-1.283a1.82 1.82 0 0 1 .355-1.136q.366-.485 1.011-.747.65-.268 1.501-.268 1.246 0 1.962.531.72.53.891 1.435m2.569 7.876q-.342 0-.633-.055a2.4 2.4 0 0 1-.457-.12l.388-1.302q.364.106.651.101a.8.8 0 0 0 .503-.18q.222-.17.374-.572l.143-.383-2.571-7.239h1.773l1.634 5.355h.074l1.639-5.355h1.777l-2.839 7.95a3.2 3.2 0 0 1-.527.965q-.327.406-.803.618-.47.217-1.126.217m13.217-9.75v1.293h-4.077v-1.293zm-3.07-1.699h1.671v6.657q0 .337.102.517.106.176.277.24.17.065.378.065.157 0 .286-.023.135-.023.203-.042l.282 1.307a4 4 0 0 1-.383.101 3 3 0 0 1-.6.065 2.7 2.7 0 0 1-1.131-.189 1.76 1.76 0 0 1-.799-.656q-.29-.443-.286-1.108zm7.484 8.928q-1.038 0-1.8-.457a3.1 3.1 0 0 1-1.182-1.278q-.415-.822-.415-1.921 0-1.098.415-1.925a3.1 3.1 0 0 1 1.182-1.283q.762-.457 1.8-.457 1.04 0 1.801.457.762.456 1.177 1.283.42.827.42 1.925 0 1.1-.42 1.921a3.06 3.06 0 0 1-1.177 1.278q-.762.457-1.801.457m.01-1.338q.563 0 .941-.31.379-.313.563-.84.19-.527.19-1.172 0-.651-.19-1.178a1.85 1.85 0 0 0-.563-.844q-.378-.315-.941-.314-.577 0-.961.314a1.9 1.9 0 0 0-.568.844 3.6 3.6 0 0 0-.184 1.178q0 .645.184 1.172.19.526.568.84.384.31.961.31m14.365-5.891L168.778 323h-1.847l-2.525-7.091h1.782l1.629 5.267h.074l1.634-5.267zm4.054 7.229q-1.066 0-1.842-.443a3 3 0 0 1-1.186-1.265q-.416-.82-.416-1.934 0-1.094.416-1.92.42-.831 1.172-1.293.753-.466 1.769-.466.655 0 1.237.212a2.8 2.8 0 0 1 1.034.646q.452.439.711 1.118.258.673.258 1.606v.513h-5.812v-1.127h4.21a1.8 1.8 0 0 0-.207-.854 1.5 1.5 0 0 0-.568-.595 1.6 1.6 0 0 0-.84-.217q-.513 0-.901.249-.388.244-.604.646a1.86 1.86 0 0 0-.217.873v.983q0 .618.226 1.062.226.438.632.674.406.231.951.231.365 0 .66-.102a1.5 1.5 0 0 0 .513-.309 1.3 1.3 0 0 0 .328-.503l1.56.175a2.4 2.4 0 0 1-.563 1.08 2.74 2.74 0 0 1-1.053.711q-.642.249-1.468.249m4.567-.138v-7.091h1.62v1.182h.074q.194-.614.665-.946a1.83 1.83 0 0 1 1.085-.337q.138 0 .309.013.175.01.291.033v1.537a2 2 0 0 0-.337-.065 3 3 0 0 0-.438-.032q-.458 0-.822.199-.36.194-.568.54t-.208.798V323zm5.154 0v-7.091h1.672V323zm.841-8.097a.98.98 0 0 1-.684-.263.85.85 0 0 1-.286-.642q0-.378.286-.642a.97.97 0 0 1 .684-.268q.4 0 .683.268a.84.84 0 0 1 .286.642.85.85 0 0 1-.286.642.97.97 0 0 1-.683.263m6.141 1.006v1.293h-4.192v-1.293zM188.916 323v-7.76q0-.716.295-1.191.3-.476.804-.711a2.6 2.6 0 0 1 1.117-.236q.433 0 .771.07.337.069.498.124l-.332 1.293a3 3 0 0 0-.268-.065 1.7 1.7 0 0 0-.36-.037q-.467 0-.66.226-.189.223-.189.637V323zm5.491 2.659q-.341 0-.632-.055a2.4 2.4 0 0 1-.457-.12l.387-1.302q.366.106.651.101a.8.8 0 0 0 .504-.18q.221-.17.373-.572l.144-.383-2.572-7.239h1.773l1.634 5.355h.074l1.639-5.355h1.777l-2.839 7.95a3.2 3.2 0 0 1-.526.965q-.328.406-.803.618-.471.217-1.127.217M115.633 63v-9.455h1.712v4.003h4.381v-4.003h1.718V63h-1.718v-4.016h-4.381V63zm11.64.143a3 3 0 0 1-1.214-.24 2 2 0 0 1-.849-.72q-.31-.475-.31-1.173 0-.6.222-.992.222-.393.605-.628.383-.236.863-.356a7 7 0 0 1 1.002-.18 40 40 0 0 0 1.011-.115q.387-.055.563-.166.18-.116.18-.356v-.027q0-.522-.309-.808-.31-.286-.891-.286-.614 0-.974.267-.355.268-.481.633l-1.56-.222q.184-.645.61-1.08.425-.439 1.038-.656.615-.22 1.357-.221.513 0 1.021.12t.928.397a2 2 0 0 1 .674.743q.258.47.258 1.177V63h-1.606v-.974h-.056a2.02 2.02 0 0 1-1.117.965 2.8 2.8 0 0 1-.965.152m.434-1.228q.503 0 .873-.198.369-.204.567-.536a1.36 1.36 0 0 0 .204-.725v-.835a.8.8 0 0 1-.268.12q-.185.055-.416.097-.23.04-.457.074l-.392.055a3 3 0 0 0-.669.166 1.1 1.1 0 0 0-.467.323.8.8 0 0 0-.171.527q0 .461.337.697t.859.235M132.698 63v-7.09h1.62v1.18h.074q.194-.612.665-.946a1.83 1.83 0 0 1 1.084-.337q.14 0 .31.014.175.01.291.033v1.537a2 2 0 0 0-.337-.065 3 3 0 0 0-.439-.032 1.7 1.7 0 0 0-.822.199 1.46 1.46 0 0 0-.775 1.338V63zm7.493.125a2.7 2.7 0 0 1-1.496-.43q-.66-.429-1.043-1.246-.383-.818-.383-1.985 0-1.182.388-1.995.392-.816 1.057-1.232.665-.42 1.482-.42.623 0 1.025.212.401.208.637.503.235.29.364.55h.07v-3.537h1.676V63h-1.644v-1.117h-.102q-.129.258-.373.55-.245.285-.647.489-.402.203-1.011.203m.466-1.371q.531 0 .905-.287.375-.29.568-.808a3.4 3.4 0 0 0 .194-1.204q0-.689-.194-1.196a1.7 1.7 0 0 0-.563-.79q-.369-.28-.91-.281-.558 0-.932.29a1.76 1.76 0 0 0-.563.804q-.19.512-.19 1.173 0 .664.19 1.186.193.517.568.817.378.296.927.296m11.857-5.845v1.293h-4.077v-1.293zm-3.07-1.699h1.671v6.657q0 .337.102.517.106.176.277.24.17.065.378.065.157 0 .286-.023.135-.024.203-.042l.282 1.307q-.134.045-.383.101a3 3 0 0 1-.6.065 2.7 2.7 0 0 1-1.131-.19 1.76 1.76 0 0 1-.799-.655q-.29-.443-.286-1.108zm7.484 8.929q-1.038 0-1.8-.458a3.1 3.1 0 0 1-1.182-1.278q-.415-.822-.415-1.92 0-1.1.415-1.926.42-.826 1.182-1.283t1.8-.457q1.04 0 1.801.457.762.456 1.177 1.283.42.827.42 1.925 0 1.1-.42 1.92a3.07 3.07 0 0 1-1.177 1.28q-.762.456-1.801.456m.01-1.34q.563 0 .941-.309.379-.313.563-.84.19-.526.19-1.172a3.4 3.4 0 0 0-.19-1.178 1.86 1.86 0 0 0-.563-.844q-.378-.315-.941-.314-.577 0-.961.314-.378.313-.568.844-.184.527-.184 1.178 0 .645.184 1.172.19.526.568.84.384.31.961.31m14.365-5.89L168.778 63h-1.847l-2.525-7.09h1.782l1.629 5.267h.074l1.634-5.268zm4.054 7.23q-1.066 0-1.842-.444a3 3 0 0 1-1.186-1.265q-.416-.82-.416-1.934 0-1.095.416-1.92.42-.831 1.172-1.293.753-.466 1.769-.466.655 0 1.237.212.586.208 1.034.646.452.439.711 1.118.258.674.258 1.606v.513h-5.812v-1.127h4.21a1.8 1.8 0 0 0-.207-.854 1.5 1.5 0 0 0-.568-.595 1.6 1.6 0 0 0-.84-.217 1.63 1.63 0 0 0-.901.249q-.388.244-.604.646a1.85 1.85 0 0 0-.217.873v.983q0 .618.226 1.062.226.438.632.674.406.23.951.23.365 0 .66-.1a1.5 1.5 0 0 0 .513-.31q.217-.204.328-.503l1.56.175a2.4 2.4 0 0 1-.563 1.08 2.75 2.75 0 0 1-1.053.711q-.642.25-1.468.25m4.567-.139v-7.09h1.62v1.18h.074q.194-.612.665-.946a1.83 1.83 0 0 1 1.085-.337q.138 0 .309.014.175.01.291.033v1.537a2 2 0 0 0-.337-.065 3 3 0 0 0-.438-.032 1.7 1.7 0 0 0-.822.199q-.36.193-.568.54-.208.346-.208.798V63zm5.154 0v-7.09h1.672V63zm.841-8.097a.98.98 0 0 1-.684-.263.85.85 0 0 1-.286-.642q0-.378.286-.642a.97.97 0 0 1 .684-.268q.4 0 .683.268.286.264.286.642 0 .374-.286.642a.97.97 0 0 1-.683.263m6.141 1.006v1.293h-4.192v-1.293zM188.916 63v-7.76q0-.715.295-1.191.3-.475.804-.711a2.6 2.6 0 0 1 1.117-.236q.433 0 .771.07.337.069.498.124l-.332 1.293a3 3 0 0 0-.268-.065 1.6 1.6 0 0 0-.36-.037q-.467 0-.66.226-.189.222-.189.637V63zm5.491 2.66a3.4 3.4 0 0 1-.632-.056 2.4 2.4 0 0 1-.457-.12l.387-1.302q.366.106.651.101a.8.8 0 0 0 .504-.18q.221-.17.373-.572l.144-.383-2.572-7.239h1.773l1.634 5.355h.074l1.639-5.355h1.777l-2.839 7.95a3.2 3.2 0 0 1-.526.964q-.328.407-.803.62-.471.216-1.127.216" fill="#fff" fill-opacity=".5" />
    <path d="m151.416 181.909 3.407 10.304h.134l3.4-10.304h2.608L156.35 195h-2.927l-4.609-13.091zm14.463 13.283q-1.476 0-2.55-.614a4.16 4.16 0 0 1-1.643-1.751q-.575-1.138-.575-2.679 0-1.515.575-2.659a4.35 4.35 0 0 1 1.624-1.789q1.041-.646 2.448-.646.907 0 1.713.294a3.9 3.9 0 0 1 1.432.895q.626.607.984 1.547.358.933.358 2.224v.71h-8.048v-1.56h5.83a2.5 2.5 0 0 0-.288-1.182 2.1 2.1 0 0 0-.786-.825q-.498-.3-1.163-.3-.71 0-1.247.345a2.4 2.4 0 0 0-.837.895 2.6 2.6 0 0 0-.3 1.208v1.361q0 .857.313 1.47.313.607.875.934.563.32 1.317.319.506 0 .914-.14a2 2 0 0 0 .71-.429q.3-.28.454-.696l2.16.242a3.36 3.36 0 0 1-.78 1.496q-.569.633-1.457.985-.888.345-2.033.345m6.324-.192v-9.818h2.243v1.636h.102q.269-.85.921-1.31.659-.467 1.502-.467.192 0 .428.019.243.013.403.045v2.129a2.5 2.5 0 0 0-.467-.09 4 4 0 0 0-.607-.045q-.633 0-1.138.275a2 2 0 0 0-.786.748q-.287.48-.287 1.106V195zm7.136 0v-9.818h2.314V195zm1.164-11.212q-.55 0-.946-.364a1.17 1.17 0 0 1-.397-.888q0-.525.397-.889.396-.37.946-.371.555 0 .946.371.396.364.396.889 0 .517-.396.888-.39.364-.946.364m8.503 1.394v1.79h-5.804v-1.79zM184.653 195v-10.745q0-.991.409-1.649a2.6 2.6 0 0 1 1.112-.985q.696-.326 1.547-.326.6 0 1.067.096t.691.173l-.461 1.79a4 4 0 0 0-.37-.09 2.3 2.3 0 0 0-.499-.051q-.645 0-.914.313-.262.308-.262.882V195zm7.603 3.682q-.472 0-.876-.077a3.2 3.2 0 0 1-.632-.166l.536-1.803q.506.147.902.141t.696-.249q.308-.237.518-.793l.198-.53-3.56-10.023h2.455l2.262 7.415h.103l2.269-7.415h2.461l-3.931 11.007a4.4 4.4 0 0 1-.729 1.336q-.454.562-1.112.856-.653.301-1.56.301M378.2 351.326h-2.391a3 3 0 0 0-.377-1.042 2.8 2.8 0 0 0-1.617-1.259 3.6 3.6 0 0 0-1.119-.166q-1.067 0-1.892.537-.825.53-1.291 1.559-.467 1.023-.467 2.5 0 1.502.467 2.531.473 1.022 1.291 1.547.824.517 1.886.517.588 0 1.099-.153.518-.16.927-.467.415-.307.697-.754a2.9 2.9 0 0 0 .396-1.023l2.391.013a5.2 5.2 0 0 1-.582 1.752 5.2 5.2 0 0 1-1.157 1.444 5.3 5.3 0 0 1-1.675.972q-.958.345-2.128.345-1.726 0-3.081-.799-1.356-.8-2.135-2.308-.78-1.508-.78-3.617 0-2.116.786-3.618.786-1.509 2.141-2.308 1.356-.8 3.069-.799 1.092 0 2.032.307a5.2 5.2 0 0 1 1.675.901q.735.588 1.208 1.445.48.85.627 1.943m2.069 8.674v-9.818h2.244v1.636h.102q.269-.85.92-1.31.659-.467 1.502-.467.192 0 .429.019.243.014.402.045v2.129a2.5 2.5 0 0 0-.466-.09 4 4 0 0 0-.607-.045q-.634 0-1.138.275a2 2 0 0 0-.786.748q-.288.48-.288 1.106V360zm9.786.198a4.1 4.1 0 0 1-1.681-.332 2.75 2.75 0 0 1-1.176-.997q-.428-.659-.428-1.624 0-.831.307-1.374.306-.543.837-.87a4.2 4.2 0 0 1 1.195-.492 10 10 0 0 1 1.387-.249q.863-.09 1.4-.16.537-.077.78-.23.249-.16.249-.492v-.039q0-.722-.428-1.118-.429-.396-1.234-.396-.85 0-1.348.37-.493.37-.665.876l-2.161-.307q.256-.894.844-1.496a3.7 3.7 0 0 1 1.438-.907 5.5 5.5 0 0 1 1.88-.307q.709 0 1.412.166t1.285.55q.582.376.933 1.029.358.652.358 1.63V360h-2.224v-1.349h-.077a2.8 2.8 0 0 1-.594.767 2.9 2.9 0 0 1-.953.569q-.568.211-1.336.211m.601-1.7q.697 0 1.208-.275a2.03 2.03 0 0 0 .786-.741q.282-.46.282-1.004v-1.157q-.109.09-.371.166a5 5 0 0 1-.575.134q-.32.058-.633.103l-.544.076a4 4 0 0 0-.926.231 1.53 1.53 0 0 0-.646.447q-.236.28-.236.729 0 .64.466.965.467.326 1.189.326m11.883-8.316v1.79h-5.804v-1.79zM398.186 360v-10.745q0-.991.409-1.649a2.6 2.6 0 0 1 1.112-.985q.697-.326 1.547-.326.6 0 1.068.096.466.096.69.173l-.46 1.79a4 4 0 0 0-.371-.09 2.3 2.3 0 0 0-.499-.051q-.645 0-.914.313-.262.307-.262.882V360zm11.068-9.818v1.79h-5.644v-1.79zm-4.251-2.352h2.314v9.217q0 .467.141.716a.75.75 0 0 0 .383.332q.236.09.524.09.217 0 .397-.032.185-.033.281-.058l.39 1.809q-.186.064-.531.141a4.3 4.3 0 0 1-.831.089q-.869.026-1.566-.262a2.44 2.44 0 0 1-1.106-.908q-.402-.613-.396-1.534z" fill="#fff" />
    <circle cx="342" cy="310" fill="#74b259" r="9" />
    <circle cx="427" cy="290" fill="#74b259" r="9" />
    <circle cx="264" cy="310" fill="#5eb44c" r="9" />
    <circle cx="290" cy="290" fill="#5eb44c" r="9" />
    <path d="m275 310 7.5 4.33v-8.66zm55 .75a.75.75 0 0 0 0-1.5zm-48.25-.75v.75H330v-1.5h-48.25zM301 290l7.5 4.33v-8.66zm114.5.75a.75.75 0 0 0 0-1.5zM307.75 290v.75H415.5v-1.5H307.75z" fill="#a276ff" />
    <path d="M441.136 167h-3.203v-9.455h3.268q1.408 0 2.419.568a3.8 3.8 0 0 1 1.56 1.621q.546 1.057.545 2.529 0 1.478-.549 2.54a3.8 3.8 0 0 1-1.574 1.629q-1.025.568-2.466.568m-1.491-1.482h1.408q.988 0 1.648-.36.66-.365.993-1.085.332-.724.332-1.81 0-1.085-.332-1.8a2.27 2.27 0 0 0-.983-1.076q-.647-.36-1.607-.36h-1.459zm10.773 1.62q-1.067 0-1.842-.443a3 3 0 0 1-1.187-1.265q-.415-.82-.415-1.934 0-1.094.415-1.92.42-.831 1.173-1.293.753-.466 1.768-.466.656 0 1.237.212.587.208 1.034.646.453.439.711 1.118.26.673.259 1.606v.513h-5.812v-1.127h4.21a1.8 1.8 0 0 0-.208-.854 1.5 1.5 0 0 0-.568-.595 1.6 1.6 0 0 0-.84-.217q-.512 0-.9.249-.388.244-.605.646a1.9 1.9 0 0 0-.217.873v.983q0 .618.226 1.062.227.438.633.674.407.231.951.231.364 0 .66-.102.296-.107.512-.309a1.3 1.3 0 0 0 .328-.503l1.561.175a2.44 2.44 0 0 1-.564 1.08 2.74 2.74 0 0 1-1.052.711q-.642.249-1.468.249m10.171-5.355-1.523.167a1.2 1.2 0 0 0-.227-.434 1.1 1.1 0 0 0-.424-.328 1.55 1.55 0 0 0-.656-.125q-.522 0-.877.226-.35.227-.346.587a.61.61 0 0 0 .226.503q.235.194.776.318l1.209.259q1.007.217 1.496.688.493.471.498 1.232a1.92 1.92 0 0 1-.392 1.182q-.383.508-1.066.794-.684.286-1.57.286-1.302 0-2.096-.544-.794-.55-.946-1.528l1.629-.157q.111.48.471.725.36.244.937.244.596 0 .956-.244.365-.246.365-.605a.63.63 0 0 0-.236-.503q-.231-.199-.72-.305l-1.209-.254q-1.021-.212-1.51-.716-.49-.507-.485-1.283a1.82 1.82 0 0 1 .356-1.136q.364-.485 1.011-.747.651-.268 1.5-.268 1.247 0 1.962.531.72.53.891 1.435m1.53 5.217v-7.091h1.672V167zm.841-8.097a.98.98 0 0 1-.684-.263.85.85 0 0 1-.286-.642q0-.378.286-.642a.97.97 0 0 1 .684-.268q.4 0 .683.268a.84.84 0 0 1 .286.642.85.85 0 0 1-.286.642.97.97 0 0 1-.683.263m5.633 10.904q-.9 0-1.547-.245-.647-.24-1.038-.646a2.2 2.2 0 0 1-.545-.9l1.505-.365q.102.207.295.411.194.207.522.341.332.14.836.139.71 0 1.177-.346.466-.342.466-1.127v-1.343h-.083a2.4 2.4 0 0 1-.379.531 1.9 1.9 0 0 1-.651.457q-.4.184-1.011.184a2.9 2.9 0 0 1-1.481-.383q-.66-.387-1.053-1.154-.388-.77-.388-1.93 0-1.167.388-1.971.393-.807 1.057-1.223.665-.42 1.482-.42.624 0 1.025.212.406.208.646.503.24.29.365.55h.092v-1.173h1.648v7.206q0 .91-.434 1.505a2.6 2.6 0 0 1-1.186.891q-.753.296-1.708.296m.014-4.22q.53 0 .905-.258.374-.259.567-.743.195-.485.194-1.164 0-.67-.194-1.172a1.7 1.7 0 0 0-.563-.781q-.369-.28-.909-.281-.56 0-.933.291-.374.291-.563.798a3.2 3.2 0 0 0-.189 1.145q0 .651.189 1.14.194.486.568.758.378.267.928.267m6.698-2.742V167h-1.671v-7.091h1.597v1.205h.083q.246-.595.781-.946.54-.351 1.334-.351.733 0 1.279.314.549.314.849.909.304.596.3 1.445V167h-1.671v-4.256q0-.711-.369-1.113-.366-.402-1.011-.402-.44 0-.781.194-.336.19-.531.55-.189.36-.189.872m12.615 4.293q-1.067 0-1.842-.443a3 3 0 0 1-1.187-1.265q-.415-.82-.415-1.934 0-1.094.415-1.92.42-.831 1.173-1.293.753-.466 1.768-.466.655 0 1.237.212.587.208 1.034.646.453.439.711 1.118.26.673.259 1.606v.513h-5.812v-1.127h4.21a1.8 1.8 0 0 0-.208-.854 1.5 1.5 0 0 0-.568-.595 1.6 1.6 0 0 0-.84-.217q-.513 0-.9.249-.388.244-.605.646a1.9 1.9 0 0 0-.217.873v.983q0 .618.226 1.062.227.438.633.674.407.231.951.231.365 0 .66-.102.296-.107.512-.309a1.3 1.3 0 0 0 .328-.503l1.561.175a2.44 2.44 0 0 1-.564 1.08 2.74 2.74 0 0 1-1.052.711q-.642.249-1.468.249m6.238-4.293V167h-1.671v-7.091h1.597v1.205h.083q.245-.595.78-.946.54-.351 1.334-.351.735 0 1.279.314.549.314.85.909.304.596.3 1.445V167h-1.672v-4.256q0-.711-.369-1.113-.364-.402-1.011-.402-.438 0-.78.194-.338.19-.531.55-.189.36-.189.872m9.334 6.962q-.9 0-1.546-.245-.646-.24-1.039-.646a2.24 2.24 0 0 1-.545-.9l1.505-.365q.102.207.296.411.194.207.521.341.333.14.836.139.71 0 1.177-.346.466-.342.466-1.127v-1.343h-.083a2.4 2.4 0 0 1-.378.531 1.9 1.9 0 0 1-.651.457q-.402.184-1.011.184a2.9 2.9 0 0 1-1.482-.383q-.66-.387-1.053-1.154-.387-.77-.387-1.93 0-1.167.387-1.971.392-.807 1.058-1.223.665-.42 1.481-.42.624 0 1.025.212.407.208.647.503.24.29.364.55h.093v-1.173h1.648v7.206q0 .91-.434 1.505a2.6 2.6 0 0 1-1.187.891q-.752.296-1.708.296m.014-4.22q.531 0 .905-.258.374-.259.568-.743.194-.485.194-1.164 0-.67-.194-1.172a1.7 1.7 0 0 0-.563-.781q-.37-.28-.91-.281-.558 0-.932.291t-.564.798a3.2 3.2 0 0 0-.189 1.145q0 .651.189 1.14.195.486.568.758.38.267.928.267m5.027 1.413v-7.091h1.672V167zm.841-8.097a.98.98 0 0 1-.684-.263.85.85 0 0 1-.286-.642q0-.378.286-.642a.97.97 0 0 1 .684-.268q.4 0 .683.268a.84.84 0 0 1 .286.642.85.85 0 0 1-.286.642.97.97 0 0 1-.683.263m4.22 3.942V167h-1.671v-7.091h1.597v1.205h.084q.245-.595.78-.946.54-.351 1.334-.351.733 0 1.279.314.549.314.849.909.304.596.3 1.445V167h-1.671v-4.256q0-.711-.369-1.113-.365-.402-1.011-.402-.44 0-.781.194-.336.19-.53.55-.19.36-.19.872m9.39 4.293q-1.067 0-1.842-.443a3 3 0 0 1-1.186-1.265q-.416-.82-.416-1.934 0-1.094.416-1.92.42-.831 1.172-1.293.753-.466 1.768-.466.657 0 1.238.212a2.8 2.8 0 0 1 1.034.646q.452.439.711 1.118.258.673.258 1.606v.513h-5.812v-1.127h4.21a1.8 1.8 0 0 0-.207-.854 1.5 1.5 0 0 0-.568-.595 1.6 1.6 0 0 0-.84-.217q-.513 0-.901.249-.388.244-.604.646a1.86 1.86 0 0 0-.217.873v.983q0 .618.226 1.062.226.438.632.674.406.231.951.231.365 0 .66-.102a1.5 1.5 0 0 0 .513-.309 1.3 1.3 0 0 0 .328-.503l1.56.175a2.4 2.4 0 0 1-.563 1.08 2.74 2.74 0 0 1-1.053.711q-.642.249-1.468.249m7.706 0q-1.067 0-1.842-.443a3 3 0 0 1-1.186-1.265q-.416-.82-.416-1.934 0-1.094.416-1.92.42-.831 1.172-1.293.753-.466 1.769-.466.655 0 1.237.212a2.8 2.8 0 0 1 1.034.646q.452.439.711 1.118.258.673.258 1.606v.513h-5.812v-1.127h4.21a1.8 1.8 0 0 0-.207-.854 1.5 1.5 0 0 0-.568-.595 1.6 1.6 0 0 0-.84-.217q-.513 0-.901.249-.388.244-.604.646a1.86 1.86 0 0 0-.217.873v.983q0 .618.226 1.062.227.438.632.674.406.231.951.231.365 0 .66-.102a1.5 1.5 0 0 0 .513-.309 1.3 1.3 0 0 0 .328-.503l1.56.175a2.4 2.4 0 0 1-.563 1.08 2.74 2.74 0 0 1-1.053.711q-.642.249-1.468.249m4.567-.138v-7.091h1.62v1.182h.074q.194-.614.665-.946a1.83 1.83 0 0 1 1.085-.337q.138 0 .309.013.176.01.291.033v1.537a2 2 0 0 0-.337-.065 3 3 0 0 0-.438-.032q-.457 0-.822.199-.36.193-.568.54-.207.346-.208.798V167zm-97.398 16v-7.091h1.671V183zm.84-8.097a.97.97 0 0 1-.683-.263.85.85 0 0 1-.287-.642q0-.378.287-.642a.97.97 0 0 1 .683-.268q.401 0 .683.268a.84.84 0 0 1 .286.642.85.85 0 0 1-.286.642.97.97 0 0 1-.683.263m2.549 8.097v-7.091h1.598v1.205h.083q.22-.609.734-.951.512-.346 1.223-.346.72 0 1.214.351.5.345.702.946h.074q.235-.591.794-.942.563-.355 1.334-.355.978 0 1.597.618.62.619.619 1.805V183h-1.676v-4.501q0-.66-.351-.965a1.25 1.25 0 0 0-.858-.309q-.606 0-.947.378-.336.375-.337.974V183h-1.639v-4.57q0-.55-.332-.877-.328-.328-.859-.328-.36 0-.655.184-.296.18-.471.513a1.6 1.6 0 0 0-.176.766V183zm11.667 2.659v-9.75h1.644v1.173h.097q.129-.26.364-.55.236-.295.637-.503.402-.212 1.025-.212.822 0 1.482.42.664.416 1.053 1.232.392.813.392 1.995 0 1.167-.383 1.985-.383.817-1.043 1.246t-1.496.43q-.609 0-1.011-.203a2.1 2.1 0 0 1-.646-.49 3.2 3.2 0 0 1-.374-.549h-.07v3.776zm1.639-6.204q0 .688.194 1.204.198.517.568.808.374.287.905.287.553 0 .928-.296.374-.3.563-.817.194-.522.194-1.186 0-.66-.19-1.173a1.75 1.75 0 0 0-.563-.803q-.374-.291-.932-.291-.535 0-.91.281a1.74 1.74 0 0 0-.568.79q-.189.507-.189 1.196M461.04 183v-7.091h1.621v1.182h.074q.193-.614.664-.946a1.83 1.83 0 0 1 1.085-.337q.14 0 .31.013.174.01.29.033v1.537a2 2 0 0 0-.337-.065 3 3 0 0 0-.438-.032q-.457 0-.822.199-.36.193-.568.54-.207.346-.208.798V183zm7.956.138q-1.04 0-1.801-.457a3.1 3.1 0 0 1-1.182-1.278q-.415-.822-.415-1.921 0-1.098.415-1.925a3.1 3.1 0 0 1 1.182-1.283q.762-.457 1.801-.457t1.8.457q.762.456 1.177 1.283.42.827.42 1.925 0 1.1-.42 1.921a3.06 3.06 0 0 1-1.177 1.278q-.762.457-1.8.457m.009-1.338q.563 0 .942-.31.378-.313.563-.84a3.5 3.5 0 0 0 .189-1.172 3.5 3.5 0 0 0-.189-1.178 1.86 1.86 0 0 0-.563-.844q-.38-.315-.942-.314-.577 0-.96.314-.38.313-.568.844a3.6 3.6 0 0 0-.185 1.178q0 .645.185 1.172.189.527.568.84.382.31.96.31m10.899-5.891L477.379 183h-1.846l-2.526-7.091h1.782l1.63 5.267h.074l1.634-5.267zm4.055 7.229q-1.067 0-1.842-.443a3 3 0 0 1-1.187-1.265q-.415-.82-.415-1.934 0-1.094.415-1.92.42-.831 1.173-1.293.753-.466 1.768-.466.656 0 1.237.212.587.208 1.034.646.453.439.711 1.118.26.673.259 1.606v.513H481.3v-1.127h4.21a1.8 1.8 0 0 0-.208-.854 1.5 1.5 0 0 0-.568-.595 1.6 1.6 0 0 0-.84-.217q-.512 0-.9.249-.388.244-.605.646a1.9 1.9 0 0 0-.217.873v.983q0 .618.226 1.062.227.438.633.674.406.231.951.231.365 0 .66-.102.296-.107.512-.309a1.3 1.3 0 0 0 .328-.503l1.561.175a2.44 2.44 0 0 1-.564 1.08 2.74 2.74 0 0 1-1.052.711q-.642.249-1.468.249m10.171-5.355-1.523.167a1.2 1.2 0 0 0-.227-.434 1.1 1.1 0 0 0-.424-.328 1.55 1.55 0 0 0-.656-.125q-.522 0-.877.226-.35.227-.346.587a.61.61 0 0 0 .226.503q.235.193.776.318l1.209.259q1.007.217 1.496.688.494.471.498 1.232a1.92 1.92 0 0 1-.392 1.182q-.383.508-1.066.794-.684.286-1.57.286-1.302 0-2.096-.544-.794-.55-.946-1.528l1.629-.157q.111.48.471.725.36.244.937.244.596 0 .956-.244.365-.246.365-.605a.63.63 0 0 0-.236-.503q-.231-.199-.72-.305l-1.209-.254q-1.021-.212-1.51-.716-.49-.507-.485-1.283a1.82 1.82 0 0 1 .356-1.136q.364-.485 1.011-.747.651-.268 1.5-.268 1.247 0 1.962.531.72.53.891 1.435m11.089-1.874L502.694 183h-1.847l-2.525-7.091h1.782l1.629 5.267h.074l1.634-5.267zm4.054 7.229q-1.067 0-1.842-.443a3 3 0 0 1-1.186-1.265q-.416-.82-.416-1.934 0-1.094.416-1.92.42-.831 1.172-1.293.753-.466 1.769-.466.655 0 1.237.212a2.8 2.8 0 0 1 1.034.646q.452.439.711 1.118.258.673.258 1.606v.513h-5.812v-1.127h4.21a1.8 1.8 0 0 0-.207-.854 1.5 1.5 0 0 0-.568-.595 1.6 1.6 0 0 0-.84-.217q-.513 0-.901.249-.387.244-.604.646a1.86 1.86 0 0 0-.217.873v.983q0 .618.226 1.062.227.438.632.674.407.231.951.231.365 0 .66-.102a1.5 1.5 0 0 0 .513-.309 1.3 1.3 0 0 0 .328-.503l1.56.175a2.4 2.4 0 0 1-.563 1.08 2.74 2.74 0 0 1-1.053.711q-.641.249-1.468.249m4.567-.138v-7.091h1.62v1.182h.074q.195-.614.665-.946a1.83 1.83 0 0 1 1.085-.337q.138 0 .309.013.175.01.291.033v1.537a2 2 0 0 0-.337-.065 3 3 0 0 0-.438-.032q-.457 0-.822.199-.36.193-.568.54-.207.346-.208.798V183zm5.154 0v-7.091h1.672V183zm.841-8.097a.98.98 0 0 1-.684-.263.85.85 0 0 1-.286-.642q0-.378.286-.642a.97.97 0 0 1 .684-.268q.4 0 .683.268a.84.84 0 0 1 .286.642.85.85 0 0 1-.286.642.97.97 0 0 1-.683.263m6.141 1.006v1.293h-4.192v-1.293zM522.832 183v-7.76q0-.715.295-1.191.3-.475.804-.711a2.6 2.6 0 0 1 1.117-.236q.434 0 .771.07.337.069.498.124l-.332 1.293a3 3 0 0 0-.268-.065 1.7 1.7 0 0 0-.36-.037q-.466 0-.66.226-.189.222-.189.637V183zm4.452 0v-7.091h1.672V183zm.841-8.097a.98.98 0 0 1-.684-.263.85.85 0 0 1-.286-.642q0-.378.286-.642a.97.97 0 0 1 .684-.268q.4 0 .683.268a.84.84 0 0 1 .286.642.85.85 0 0 1-.286.642.97.97 0 0 1-.683.263m5.642 8.235q-1.062 0-1.823-.466a3.1 3.1 0 0 1-1.168-1.288q-.407-.826-.407-1.902 0-1.08.416-1.906a3.1 3.1 0 0 1 1.172-1.293q.762-.466 1.801-.466.863 0 1.528.318.67.315 1.066.891.398.573.453 1.339h-1.598a1.52 1.52 0 0 0-.461-.854q-.36-.346-.965-.346-.513 0-.9.277-.388.272-.605.785-.212.512-.212 1.228 0 .724.212 1.246.213.517.596.799.387.276.909.277.369 0 .66-.139.296-.142.494-.411.198-.267.272-.651h1.598q-.06.753-.443 1.335a2.63 2.63 0 0 1-1.044.904q-.66.324-1.551.323m6.451.005q-.675 0-1.215-.24a2 2 0 0 1-.849-.72q-.309-.476-.309-1.173 0-.6.221-.992.222-.393.605-.628.383-.236.863-.356a7 7 0 0 1 1.002-.18 38 38 0 0 0 1.011-.115q.388-.055.563-.166.18-.116.18-.356v-.027q0-.522-.309-.808t-.891-.286q-.614 0-.974.267-.356.269-.48.633l-1.561-.222a2.5 2.5 0 0 1 .61-1.08 2.66 2.66 0 0 1 1.039-.656 4 4 0 0 1 1.357-.221q.511 0 1.02.12.508.12.928.397.42.272.674.743.258.47.258 1.177V183h-1.606v-.974h-.055a2 2 0 0 1-.43.554 2.1 2.1 0 0 1-.688.411 2.8 2.8 0 0 1-.964.152m.433-1.228q.504 0 .873-.198.369-.203.568-.536.203-.332.203-.725v-.835a.8.8 0 0 1-.268.12 4 4 0 0 1-.415.097q-.231.04-.457.074l-.393.055a3 3 0 0 0-.669.166 1.1 1.1 0 0 0-.466.323.8.8 0 0 0-.171.527q0 .461.337.697t.858.235m8.532-6.006v1.293h-4.077v-1.293zm-3.07-1.699h1.671v6.657q0 .337.101.517a.55.55 0 0 0 .277.24q.172.065.379.065.157 0 .286-.023.134-.023.203-.042l.282 1.307a4 4 0 0 1-.383.101 3 3 0 0 1-.6.065 2.7 2.7 0 0 1-1.131-.189 1.76 1.76 0 0 1-.799-.656q-.29-.443-.286-1.108zm4.467 8.79v-7.091h1.672V183zm.841-8.097a.98.98 0 0 1-.684-.263.85.85 0 0 1-.286-.642.84.84 0 0 1 .286-.642.97.97 0 0 1 .684-.268q.4 0 .683.268a.84.84 0 0 1 .286.642.85.85 0 0 1-.286.642.97.97 0 0 1-.683.263m5.642 8.235q-1.039 0-1.8-.457a3.1 3.1 0 0 1-1.182-1.278q-.416-.822-.416-1.921 0-1.098.416-1.925a3.1 3.1 0 0 1 1.182-1.283q.761-.457 1.8-.457t1.8.457q.762.456 1.178 1.283.42.827.42 1.925 0 1.1-.42 1.921-.416.822-1.178 1.278-.76.457-1.8.457m.009-1.338q.564 0 .942-.31.378-.313.563-.84a3.5 3.5 0 0 0 .19-1.172 3.5 3.5 0 0 0-.19-1.178 1.86 1.86 0 0 0-.563-.844q-.378-.315-.942-.314-.577 0-.96.314-.379.313-.568.844a3.6 3.6 0 0 0-.184 1.178q0 .645.184 1.172.19.527.568.84.383.31.96.31m6.478-2.955V183h-1.671v-7.091h1.597v1.205h.084q.245-.595.78-.946.54-.351 1.334-.351.734 0 1.279.314.549.314.849.909.304.596.3 1.445V183h-1.671v-4.256q0-.711-.369-1.113-.365-.402-1.011-.402-.44 0-.78.194-.338.19-.531.55-.19.36-.19.872" fill="#379eff" />
    <path d="M356.147 281h-1.828l3.328-9.455h2.114l3.333 9.455h-1.828l-2.525-7.516h-.074zm.06-3.707h4.985v1.376h-4.985zm9.845-5.748V281h-1.712v-9.455z" fill="#a276ff" />
    <circle cx="401" cy="231" fill="#5eb44c" r="9" />
    <circle cx="427" cy="221" fill="#5eb44c" r="9" />
    <circle cx="401" cy="125" fill="#f94646" r="9" />
    <path d="m401 221 5.774-10h-11.547zm1-84a1 1 0 0 0-2 0zm-1 75h1v-75h-2v75zm26-1 5.774-10h-11.548zm1-124.5a1 1 0 0 0-2 0zM427 202h1V86.5h-2V202z" fill="#379eff" />
    <path d="M345.433 84.546V94h-1.712v-9.454zm3.452 5.3V94h-1.671v-7.09h1.597v1.204h.084q.245-.596.78-.946.54-.351 1.334-.351.733 0 1.279.314.549.313.849.91.305.594.3 1.444V94h-1.671v-4.256q0-.711-.369-1.113-.364-.402-1.011-.402-.44 0-.781.194-.336.19-.53.55-.19.36-.19.872m9.792-2.937v1.293H354.6v-1.293zm-3.07-1.699h1.671v6.657q0 .337.102.517.106.175.277.24.17.065.378.065.157 0 .286-.023.134-.024.204-.042l.281 1.307q-.134.045-.383.101a3 3 0 0 1-.6.065 2.7 2.7 0 0 1-1.131-.19 1.76 1.76 0 0 1-.799-.655q-.29-.443-.286-1.108zm7.531 8.929q-1.067 0-1.842-.444a3 3 0 0 1-1.187-1.265q-.415-.82-.415-1.934 0-1.095.415-1.92a3.14 3.14 0 0 1 1.173-1.293q.752-.466 1.768-.466.655 0 1.237.212a2.8 2.8 0 0 1 1.034.646q.453.439.711 1.118.259.673.259 1.606v.513h-5.813v-1.127h4.211a1.8 1.8 0 0 0-.208-.854 1.5 1.5 0 0 0-.568-.595 1.6 1.6 0 0 0-.84-.217q-.513 0-.9.249-.388.244-.605.646a1.85 1.85 0 0 0-.217.873v.983q0 .618.226 1.062.226.438.633.674.405.23.951.23.364 0 .66-.1.296-.108.512-.31.217-.203.328-.503l1.56.175a2.4 2.4 0 0 1-.563 1.08 2.75 2.75 0 0 1-1.052.711q-.642.25-1.468.25m4.566-.139v-7.09h1.621v1.18h.074q.193-.613.664-.946a1.83 1.83 0 0 1 1.085-.337q.14 0 .31.014.175.01.29.033v1.537a2 2 0 0 0-.337-.065 3 3 0 0 0-.438-.032 1.7 1.7 0 0 0-.822.199 1.46 1.46 0 0 0-.775 1.338V94zm7.068.143a3 3 0 0 1-1.214-.24 2 2 0 0 1-.849-.72q-.31-.475-.31-1.173 0-.6.222-.992.221-.393.605-.628.383-.235.863-.356a7 7 0 0 1 1.002-.18 40 40 0 0 0 1.011-.115q.387-.055.563-.166.18-.116.18-.356v-.027q0-.522-.309-.808-.31-.287-.891-.287-.615 0-.974.268-.356.269-.48.633l-1.561-.222q.184-.645.61-1.08.424-.439 1.038-.656.615-.22 1.357-.221.513 0 1.021.12t.928.397a2 2 0 0 1 .674.743q.258.47.258 1.177V94h-1.606v-.974h-.056a2.02 2.02 0 0 1-1.117.965 2.8 2.8 0 0 1-.965.152m.434-1.228q.503 0 .873-.198.369-.203.567-.536a1.36 1.36 0 0 0 .204-.725v-.835a.8.8 0 0 1-.268.12q-.185.055-.416.097-.23.04-.457.074l-.392.055q-.374.052-.669.166a1.1 1.1 0 0 0-.467.323.8.8 0 0 0-.171.527q0 .461.337.697t.859.235m8.084 1.223q-1.062 0-1.824-.466a3.1 3.1 0 0 1-1.168-1.288q-.406-.826-.406-1.902 0-1.08.415-1.906a3.1 3.1 0 0 1 1.173-1.293q.762-.466 1.8-.466.864 0 1.528.318.67.315 1.067.891.397.573.452 1.34h-1.597a1.53 1.53 0 0 0-.462-.855q-.36-.346-.965-.346a1.5 1.5 0 0 0-.9.277q-.387.272-.605.785-.212.511-.212 1.227 0 .726.212 1.247.213.517.596.799.389.276.909.277.37 0 .661-.139.295-.143.494-.41.198-.269.272-.652h1.597q-.06.753-.443 1.335a2.6 2.6 0 0 1-1.043.904q-.66.324-1.551.323m7.95-7.229v1.293h-4.076v-1.293zm-3.07-1.699h1.672v6.657q0 .337.101.517a.55.55 0 0 0 .277.24q.17.065.379.065.156 0 .286-.023.134-.024.203-.042l.282 1.307q-.134.045-.384.101a3 3 0 0 1-.6.065 2.7 2.7 0 0 1-1.131-.19 1.76 1.76 0 0 1-.798-.655q-.291-.443-.287-1.108zm4.468 8.79v-7.09h1.671V94zm.84-8.097a.97.97 0 0 1-.683-.263.85.85 0 0 1-.286-.642q0-.378.286-.642a.97.97 0 0 1 .683-.268q.402 0 .683.268.287.264.287.642 0 .374-.287.642a.96.96 0 0 1-.683.263m5.643 8.235q-1.04 0-1.801-.457a3.1 3.1 0 0 1-1.182-1.278q-.415-.822-.415-1.92 0-1.1.415-1.926.42-.825 1.182-1.283t1.801-.457q1.038 0 1.8.457t1.177 1.283q.42.827.42 1.925 0 1.1-.42 1.92a3.07 3.07 0 0 1-1.177 1.28q-.762.456-1.8.456m.009-1.338q.563 0 .942-.31.378-.314.563-.84a3.5 3.5 0 0 0 .189-1.172q0-.651-.189-1.178a1.87 1.87 0 0 0-.563-.844q-.38-.315-.942-.314-.577 0-.96.314-.38.313-.568.844-.185.527-.185 1.178 0 .645.185 1.172.189.526.568.84.382.31.96.31m6.478-2.955V94h-1.671v-7.09h1.597v1.204h.083q.245-.596.78-.946.54-.351 1.335-.351.734 0 1.278.314.55.313.85.91.304.594.3 1.444V94h-1.671v-4.256q0-.711-.37-1.113-.364-.402-1.011-.402-.438 0-.78.194a1.34 1.34 0 0 0-.531.55q-.189.36-.189.872m-47.057 22.814v-9.75h1.644v1.173h.096q.13-.26.365-.55.235-.295.637-.503.402-.212 1.025-.212.822 0 1.482.42.664.416 1.053 1.232.392.813.392 1.995 0 1.167-.383 1.985-.383.817-1.044 1.246-.66.43-1.495.43-.61 0-1.011-.203a2.1 2.1 0 0 1-.647-.49 3.2 3.2 0 0 1-.374-.549h-.069v3.776zm1.639-6.204q0 .688.194 1.204.198.517.568.808.374.287.904.287.555 0 .928-.296.374-.3.564-.817.193-.522.193-1.186 0-.66-.189-1.173a1.76 1.76 0 0 0-.563-.803q-.374-.291-.933-.291-.536 0-.909.281a1.73 1.73 0 0 0-.568.79q-.189.507-.189 1.196m8.527 3.688q-.675 0-1.215-.24a2 2 0 0 1-.849-.72q-.309-.475-.309-1.173 0-.6.221-.992.222-.393.605-.628.383-.236.863-.356a7 7 0 0 1 1.002-.18 38 38 0 0 0 1.011-.115q.388-.055.563-.166.18-.116.18-.356v-.027q0-.522-.309-.808t-.891-.286q-.614 0-.974.267-.356.269-.48.633l-1.561-.222a2.5 2.5 0 0 1 .61-1.08 2.66 2.66 0 0 1 1.039-.656 4 4 0 0 1 1.357-.221q.512 0 1.02.12t.928.397q.42.272.674.743.258.47.258 1.177V110h-1.606v-.974h-.055a2 2 0 0 1-.43.554 2.1 2.1 0 0 1-.688.411 2.8 2.8 0 0 1-.964.152m.433-1.228q.504 0 .873-.198.369-.203.568-.536.203-.332.203-.725v-.835a.8.8 0 0 1-.268.12 4 4 0 0 1-.415.097q-.231.04-.457.074l-.393.055a3 3 0 0 0-.669.166 1.1 1.1 0 0 0-.466.323.8.8 0 0 0-.171.527q0 .461.337.697t.858.235m8.532-6.006v1.293h-4.077v-1.293zm-3.07-1.699h1.671v6.657q0 .337.101.517a.55.55 0 0 0 .277.24q.171.065.379.065.157 0 .286-.023.135-.023.203-.042l.282 1.307a4 4 0 0 1-.383.101 3 3 0 0 1-.6.065 2.7 2.7 0 0 1-1.131-.189 1.76 1.76 0 0 1-.799-.656q-.29-.443-.286-1.108zm8.008 1.699v1.293h-4.076v-1.293zm-3.07-1.699h1.671v6.657q0 .337.102.517a.55.55 0 0 0 .277.24q.17.065.379.065.156 0 .286-.023.134-.023.203-.042l.281 1.307a4 4 0 0 1-.383.101 3 3 0 0 1-.6.065 2.7 2.7 0 0 1-1.131-.189 1.76 1.76 0 0 1-.799-.656q-.29-.443-.286-1.108zm7.531 8.928q-1.067 0-1.842-.443a3 3 0 0 1-1.187-1.265q-.415-.82-.415-1.934 0-1.093.415-1.92a3.15 3.15 0 0 1 1.173-1.293q.753-.466 1.768-.466.656 0 1.237.212.587.208 1.034.646.453.439.711 1.118.26.673.259 1.606v.513h-5.812v-1.127h4.21a1.8 1.8 0 0 0-.208-.854 1.5 1.5 0 0 0-.568-.595 1.6 1.6 0 0 0-.84-.217q-.512 0-.9.249-.387.244-.605.646a1.9 1.9 0 0 0-.217.873v.983q0 .618.227 1.062.225.438.632.674.407.231.951.231.364 0 .66-.102a1.5 1.5 0 0 0 .513-.309 1.3 1.3 0 0 0 .327-.503l1.561.175a2.44 2.44 0 0 1-.564 1.08 2.7 2.7 0 0 1-1.052.711q-.642.249-1.468.249m4.567-.138v-7.091h1.62v1.182h.074q.194-.614.665-.946a1.83 1.83 0 0 1 1.085-.337q.138 0 .309.013.175.01.291.033v1.537a2 2 0 0 0-.337-.065 3 3 0 0 0-.439-.032q-.456 0-.822.199-.36.193-.567.54-.208.346-.208.798V110zm6.825-4.155V110h-1.671v-7.091h1.597v1.205h.083q.246-.595.781-.946.54-.351 1.334-.351.733 0 1.279.314.549.313.849.909.304.596.3 1.445V110h-1.671v-4.256q0-.711-.369-1.113-.366-.402-1.011-.402-.44 0-.781.194-.336.19-.531.55-.189.36-.189.872m11.855-1.062-1.523.167a1.2 1.2 0 0 0-.226-.434 1.1 1.1 0 0 0-.425-.328 1.55 1.55 0 0 0-.656-.125q-.521 0-.877.226-.35.227-.346.587a.61.61 0 0 0 .226.503q.236.193.776.318l1.209.259q1.007.217 1.496.688.494.471.499 1.232a1.92 1.92 0 0 1-.393 1.182q-.383.508-1.066.794-.684.286-1.57.286-1.301 0-2.096-.544-.793-.55-.946-1.528l1.63-.157q.11.48.47.725.361.244.938.244.595 0 .955-.244.365-.246.365-.605a.63.63 0 0 0-.236-.503q-.23-.199-.72-.305l-1.209-.254q-1.02-.212-1.51-.716-.49-.507-.485-1.283a1.82 1.82 0 0 1 .356-1.136q.365-.484 1.011-.747.651-.268 1.5-.268 1.247 0 1.962.531.72.53.891 1.435M231.5 96.18q-1.08 0-1.92-.5a3.57 3.57 0 0 1-1.28-1.42q-.46-.92-.46-2.1v-9.24q0-.42-.14-.56-.12-.14-.54-.22l-.46-.08q-.26-.06-.26-.24 0-.22.3-.22h3.66q.3 0 .3.24 0 .18-.22.22l-.54.08q-.4.06-.54.22t-.14.58v9.24q0 1.52.68 2.36t1.9.84q1.24 0 1.92-.84t.68-2.36v-8.84q0-1.08-.68-1.2l-.54-.08q-.22-.04-.22-.22 0-.24.3-.24h2.88q.3 0 .3.22 0 .18-.26.24l-.46.08q-.68.12-.68 1.18v8.84q0 1.82-.98 2.92t-2.6 1.1m5.988-.18q-.3 0-.3-.22 0-.18.26-.24l.24-.04q.42-.08.54-.24.14-.18.14-.6v-6.72q0-.36-.12-.48-.1-.14-.38-.18l-.42-.06q-.26-.02-.26-.22 0-.16.32-.22.62-.1.94-.32.34-.22.7-.54.18-.18.3-.18.18 0 .18.24v.9q0 .18.12.24.141.04.3-.12.8-.76 1.4-1.04.62-.28 1.3-.28.9 0 1.44.64.54.62.54 1.84v6.5q0 .42.12.6.14.16.56.22l.44.06q.22.04.22.24 0 .22-.24.22h-3.36q-.28 0-.28-.22 0-.2.22-.24l.28-.04q.42-.06.54-.24.14-.18.14-.6v-6.28q0-.98-.36-1.38t-1.02-.4q-.64 0-1.16.38-.5.36-.8.98-.3.6-.3 1.34v5.36q0 .42.12.6.14.18.56.22l.54.06q.22.04.22.22 0 .24-.3.24zm12.815.18q-.88 0-1.58-.6-.68-.62-1.06-1.7-.38-1.1-.38-2.54 0-1.68.52-2.94.519-1.28 1.44-2a3.3 3.3 0 0 1 2.08-.72q.28 0 .56.06.279.04.54.16.32.16.32-.14V83.2q0-.36-.12-.5-.1-.14-.38-.16l-.52-.06q-.22-.04-.22-.24t.22-.24a5 5 0 0 0 1.02-.28q.399-.16.66-.32.32-.2.48-.2.22 0 .22.32V94.1q0 .84.42.84.26 0 .48-.34.22-.36.22-1.2 0-.32.26-.32.24 0 .24.34 0 1.46-.5 2.12-.501.64-1.14.64-.58 0-.88-.38-.3-.4-.4-.94-.02-.16-.14-.16-.12-.02-.22.14-.561.78-1.02 1.06-.46.28-1.12.28m.44-.92q.519 0 .96-.34.46-.36.74-.96.3-.6.3-1.34v-4.5q0-.9-.42-1.42a1.27 1.27 0 0 0-1.06-.52q-1.12 0-1.82 1.32-.68 1.3-.68 3.56 0 2.06.52 3.14.54 1.06 1.46 1.06m9.32.92q-.96 0-1.72-.64t-1.22-1.8q-.44-1.18-.44-2.72 0-1.58.46-2.78t1.26-1.88 1.78-.68q1.18 0 1.9.98.74.96.74 3.14 0 .66-.5.66h-3.8q-.4 0-.4.46 0 2.12.62 3.18t1.58 1.06q.76 0 1.24-.54t.78-1.82q.06-.22.26-.22.24 0 .18.4-.32 1.78-1.02 2.5-.7.7-1.7.7m-1.6-6.22h2.02q.96 0 .96-1 0-1.3-.32-2.04t-.96-.74q-.78 0-1.32.9-.52.9-.68 2.56-.039.32.3.32m7.89 6.22a4.4 4.4 0 0 1-.98-.12 3.3 3.3 0 0 1-.84-.26q-.18-.1-.18-.34l-.06-2.24q0-.34.26-.34.219 0 .3.32.34 1.42.82 1.94.5.52 1.2.52.579 0 .96-.44.38-.46.38-1.26t-.44-1.42-1.48-1.36q-1.04-.7-1.52-1.4-.48-.72-.48-1.56 0-1.14.8-1.84t2.12-.7q.399 0 .78.1.38.08.68.28.18.12.18.32l.04 2.2q0 .3-.24.3-.14 0-.2-.08a1 1 0 0 1-.1-.24q-.4-1.3-.8-1.8-.4-.52-.98-.52-.52 0-.86.36t-.34.9q0 .7.42 1.22t1.52 1.28q.999.72 1.5 1.56a3.3 3.3 0 0 1 .52 1.8q0 1.28-.82 2.06-.82.76-2.16.76m6.212-12.28q-.42 0-.72-.3-.28-.3-.28-.76t.28-.74q.3-.3.72-.3t.7.3q.28.28.28.74t-.28.76-.7.3m-1.68 12.1q-.3 0-.3-.22 0-.18.26-.24l.24-.04q.5-.08.64-.24.14-.18.14-.6v-6.72q0-.36-.12-.48-.1-.14-.38-.18l-.42-.06q-.26-.02-.26-.22 0-.16.32-.22.62-.1 1-.32t.74-.54q.18-.18.3-.18.18 0 .18.24v8.68q0 .42.12.6t.46.22l.5.06q.22.04.22.22 0 .24-.3.24zm7.333-8.92q.82-1.4 1.98-1.4.66 0 .98.4.32.38.32.86 0 .38-.2.62-.18.24-.58.24-.32 0-.48-.14a1.7 1.7 0 0 1-.24-.36 1.2 1.2 0 0 0-.2-.34q-.12-.16-.4-.16-.36 0-.68.44-.32.42-.54 1.14-.2.72-.2 1.64v4.64q0 .42.12.6.14.18.56.22l.54.06q.22.04.22.22 0 .24-.3.24h-3.38q-.3 0-.3-.22 0-.18.26-.24l.24-.04q.42-.08.54-.24.14-.18.14-.6v-6.72q0-.36-.12-.48-.1-.14-.38-.18l-.42-.06q-.26-.02-.26-.22 0-.16.32-.22.62-.1.94-.32.34-.22.7-.54.18-.18.3-.18.18 0 .18.24v1.08q0 .14.12.18.12.02.22-.16m5.736 9.1q-.84 0-1.38-.52-.54-.54-.54-1.42 0-.86.54-1.62.54-.78 1.48-1.4a8.6 8.6 0 0 1 2.14-1q.26-.08.26-.34v-1.82q0-.96-.3-1.36a.95.95 0 0 0-.82-.42q-.5 0-.92.46-.4.44-.58 1.5-.1.64-.44.94-.32.28-.66.28-.56 0-.56-.56 0-.58.32-1.14.34-.58.88-1.04.54-.48 1.18-.76a3.2 3.2 0 0 1 1.28-.28q1.98 0 1.98 2.3v6.12q0 .84.42.84.26 0 .48-.34.22-.36.22-1.2 0-.32.26-.32.24 0 .24.34 0 1.46-.52 2.12-.5.64-1.14.64a.9.9 0 0 1-.76-.38 2.4 2.4 0 0 1-.38-.94q-.02-.2-.18-.2-.14-.02-.28.18-.48.66-.98 1t-1.24.34m.54-.92q.52 0 .96-.36.44-.38.72-1t.28-1.4v-1.46q0-.38-.42-.22-1.22.44-1.9 1.22-.66.76-.66 1.84 0 1.38 1.02 1.38m9.568.92q-.82 0-1.58-.52-.44-.3-.8.16-.2.22-.3.28a.32.32 0 0 1-.2.08q-.22 0-.16-.28.081-.46.12-1.18.04-.72.04-1.92v-9.6q0-.36-.12-.48-.1-.14-.38-.18l-.42-.06q-.22-.04-.22-.24t.22-.24q.56-.12.94-.28t.64-.32q.321-.2.48-.2.22 0 .22.32v4.94q0 .16.12.22.141.04.3-.12.86-.88 1.88-.88.921 0 1.62.62.72.6 1.12 1.68.42 1.08.42 2.54 0 1.66-.52 2.94t-1.42 2a3.07 3.07 0 0 1-2 .72m-.04-.5q1.12 0 1.8-1.32.7-1.32.7-3.56 0-2.06-.6-3.14t-1.7-1.08q-.68 0-1.18.56t-.5 1.56v5.04q0 .9.4 1.42.42.52 1.08.52m5.587.32q-.24 0-.24-.22 0-.2.22-.24l.28-.04q.42-.06.62-.24t.2-.6V83.2q0-.36-.12-.5-.1-.14-.38-.16l-.46-.06q-.22-.04-.22-.24t.22-.24q.561-.12.96-.28.4-.16.66-.32.321-.2.48-.2.22 0 .22.32v13.14q0 .42.12.6.14.16.56.22l.46.06q.22.04.22.24 0 .22-.24.22zm8.235.18q-.96 0-1.72-.64t-1.22-1.8q-.44-1.18-.44-2.72 0-1.58.46-2.78t1.26-1.88 1.78-.68q1.18 0 1.9.98.74.96.74 3.14 0 .66-.5.66h-3.8q-.4 0-.4.46 0 2.12.62 3.18t1.58 1.06q.76 0 1.24-.54t.78-1.82q.06-.22.26-.22.24 0 .18.4-.32 1.78-1.02 2.5-.7.7-1.7.7m-1.6-6.22h2.02q.96 0 .96-1 0-1.3-.32-2.04t-.96-.74q-.78 0-1.32.9-.52.9-.68 2.56-.04.32.3.32M396.147 59h-1.828l3.328-9.455h2.114L403.094 59h-1.828l-2.525-7.516h-.074zm.06-3.707h4.985v1.376h-4.985zm9.73-.448V59h-1.671v-7.09h1.597v1.204h.083q.245-.595.78-.946.54-.351 1.335-.351.733 0 1.278.314.55.313.85.91.304.594.3 1.444V59h-1.671v-4.256q0-.711-.37-1.113-.364-.402-1.011-.402-.438 0-.78.194-.336.19-.531.55-.189.36-.189.872M412.188 59v-7.09h1.671V59zm.84-8.097a.97.97 0 0 1-.683-.263.85.85 0 0 1-.286-.642q0-.378.286-.642a.97.97 0 0 1 .683-.268q.401 0 .683.268.286.264.286.642 0 .374-.286.642a.96.96 0 0 1-.683.263M415.577 59v-7.09h1.598v1.204h.083a1.88 1.88 0 0 1 .734-.951q.512-.346 1.223-.346.72 0 1.214.35.5.347.702.947h.074a1.94 1.94 0 0 1 .794-.942q.563-.355 1.334-.355.98 0 1.597.618.62.619.619 1.805V59h-1.676v-4.501q0-.66-.351-.965a1.25 1.25 0 0 0-.858-.31q-.605 0-.947.38-.337.373-.337.973V59h-1.639v-4.57q0-.55-.332-.877-.327-.328-.859-.328-.36 0-.655.184a1.3 1.3 0 0 0-.471.513 1.6 1.6 0 0 0-.175.766V59zm13.708.143a3 3 0 0 1-1.214-.24 2 2 0 0 1-.85-.72q-.309-.475-.309-1.173 0-.6.222-.992.221-.393.604-.628.384-.236.864-.356a7 7 0 0 1 1.001-.18q.624-.064 1.011-.115.388-.055.564-.166.18-.116.18-.356v-.027q0-.522-.31-.808-.309-.286-.891-.286-.614 0-.974.267-.356.268-.48.633l-1.56-.222q.184-.645.609-1.08.425-.439 1.039-.656a4 4 0 0 1 1.357-.221q.513 0 1.02.12.508.12.928.397.42.273.674.743.26.47.259 1.177V59h-1.607v-.974h-.055a2 2 0 0 1-.429.554 2.1 2.1 0 0 1-.688.41 2.8 2.8 0 0 1-.965.153m.434-1.228q.503 0 .872-.198a1.46 1.46 0 0 0 .568-.536q.203-.332.203-.725v-.835a.8.8 0 0 1-.267.12q-.186.055-.416.097-.23.04-.457.074l-.392.055q-.375.051-.67.166a1.1 1.1 0 0 0-.466.323.8.8 0 0 0-.171.527q0 .461.337.697t.859.235m8.531-6.006v1.293h-4.076v-1.293zm-3.07-1.699h1.671v6.657q0 .337.102.517a.55.55 0 0 0 .277.24q.171.065.378.065.157 0 .287-.023.134-.024.203-.042l.281 1.307q-.134.045-.383.101a3 3 0 0 1-.6.065 2.7 2.7 0 0 1-1.131-.19 1.76 1.76 0 0 1-.799-.655q-.29-.443-.286-1.108zm4.468 8.79v-7.09h1.671V59zm.84-8.097a.97.97 0 0 1-.683-.263.85.85 0 0 1-.287-.642q0-.378.287-.642a.97.97 0 0 1 .683-.268q.401 0 .683.268.286.264.286.642 0 .374-.286.642a.96.96 0 0 1-.683.263m5.642 8.236q-1.038 0-1.8-.458a3.1 3.1 0 0 1-1.182-1.278q-.415-.822-.415-1.92 0-1.1.415-1.926.42-.826 1.182-1.283t1.8-.457q1.04 0 1.801.457.762.456 1.177 1.283.42.827.42 1.925 0 1.1-.42 1.92a3.07 3.07 0 0 1-1.177 1.28q-.762.456-1.801.456m.01-1.34q.563 0 .941-.309.38-.313.564-.84a3.5 3.5 0 0 0 .189-1.172q0-.651-.189-1.178a1.86 1.86 0 0 0-.564-.844q-.378-.315-.941-.314-.577 0-.961.314-.378.313-.567.844-.186.527-.185 1.178 0 .645.185 1.172.189.526.567.84.384.31.961.31m6.478-2.954V59h-1.671v-7.09h1.597v1.204h.083q.245-.595.78-.946.54-.351 1.334-.351.735 0 1.279.314.549.313.849.91.306.594.301 1.444V59h-1.672v-4.256q0-.711-.369-1.113-.364-.402-1.011-.402-.438 0-.78.194a1.34 1.34 0 0 0-.531.55q-.189.36-.189.872" fill="#f94646" />
    <circle cx="427" cy="75" fill="#f94646" r="9" />
    <defs>
        <radialGradient cx="0" cy="0" gradientTransform="rotate(119.172 159.381 141.966)scale(295.479 350.956)" gradientUnits="userSpaceOnUse" id="a" r="1" >
            <stop stop-color="#f94646" stop-opacity=".2"/>
            <stop offset="1" stop-color="#f94646" stop-opacity="0"/>
        </radialGradient>
    </defs>
</svg>